<?xml version="1.0" encoding="utf-8"?>
<svg id="master-artboard" viewBox="0 0 209.0467987060547 37.020172119140625" version="1.1" xmlns="http://www.w3.org/2000/svg" x="0px" y="0px" style="enable-background:new 0 0 1400 980;" width="209.0467987060547px" height="37.020172119140625px"><rect id="ee-background" x="0" y="0" width="209.0467987060547" height="37.020172119140625" style="fill: white; fill-opacity: 0; pointer-events: none;"/><defs><linearGradient id="gradient-0" gradientUnits="userSpaceOnUse" x1="652" y1="46" x2="652" y2="146">
                <stop offset="0" style="stop-color: #333333"/>
                <stop offset="1" style="stop-color: #000000"/>
              </linearGradient><linearGradient id="gradient-1" gradientUnits="objectBoundingBox" x1="0.5" y1="0" x2="0.5" y2="1" gradientTransform="matrix(0.9000775408048393, -0.43572960269205585, 0.4289245234211526, 0.8860203322815043, -0.19299592427234377, 0.28085369786399567)">
                <stop offset="0" style="stop-color: #f3d6ff"/>
                <stop offset="1" style="stop-color: #d470ff"/>
              </linearGradient><linearGradient id="gradient-2" gradientUnits="userSpaceOnUse" x1="652" y1="46" x2="652" y2="146" gradientTransform="matrix(0.8762399440844569, -0.48187401426224824, 0.38993141360003053, 0.7090512406472226, 46.25761300836994, 356.96032390313883)">
                <stop offset="0" style="stop-color: #d1b3ff"/>
                <stop offset="1" style="stop-color: #944dff"/>
              </linearGradient><linearGradient id="gradient-3" gradientUnits="userSpaceOnUse" x1="665.3775024414062" y1="41.613712310791016" x2="665.3775634765625" y2="141.61375427246094" gradientTransform="matrix(0.965714111328125, -0.25960838317871093, 0.2099627685546875, 0.7810386657714844, -8.300164794921875, 201.23302062988282)">
                <stop offset="0" style="stop-color: #d1b3ff"/>
                <stop offset="1" style="stop-color: #944dff"/>
              </linearGradient><linearGradient id="gradient-4" gradientUnits="userSpaceOnUse" x1="652" y1="46" x2="652" y2="146" gradientTransform="matrix(0.7428232689407241, -0.6694873073170948, 0.3119449127540383, 0.34611516254578417, 127.83438210598453, 479.1822497850743)">
                <stop offset="0" style="stop-color: #d1b3ff"/>
                <stop offset="1" style="stop-color: #944dff"/>
              </linearGradient><linearGradient id="gradient-5" gradientUnits="userSpaceOnUse" x1="652" y1="46" x2="652" y2="146" gradientTransform="matrix(0.93532047954718, -0.3538018928512452, 0.1448836700484935, 0.3830171963357861, 16.909710903492837, 278.25665055030254)">
                <stop offset="0" style="stop-color: #b694ff"/>
                <stop offset="1" style="stop-color: #702eff"/>
              </linearGradient><style id="ee-google-fonts">@import url(https://fonts.googleapis.com/css?family=Averia+Serif+Libre:300,300italic,400,400italic,700,700italic);</style><path id="text-path-0" d="M 36.52083206176758 23.15393829345703 A 100 11 0 0 1 197.8802032470703 23.15393829345703 A 100 11 0 0 1 36.52083206176758 23.15393829345703 Z" style="fill: none; stroke: red; stroke-width: 2;"/><linearGradient id="gradient-6" gradientUnits="userSpaceOnUse" x1="117.234375" y1="-2.890625" x2="117.234375" y2="28.453125">
                <stop offset="0" style="stop-color: #271d33"/>
                <stop offset="1" style="stop-color: #000000"/>
              </linearGradient><linearGradient id="gradient-7" gradientUnits="userSpaceOnUse" x1="117.234375" y1="-2.890625" x2="117.234375" y2="28.453125" gradientTransform="matrix(0.21438956441038576, -0.9767489620071038, 2.3838242751378615, 0.5232348035805864, 35.820615946305914, 125.5833994694249)">
                <stop offset="0" style="stop-color: #6b57ff"/>
                <stop offset="1" style="stop-color: #1c00f0"/>
              </linearGradient><linearGradient id="gradient-8" gradientUnits="userSpaceOnUse" x1="117.234375" y1="-2.890625" x2="117.234375" y2="28.453125" gradientTransform="matrix(0.993480382129366, -0.11399960242928409, 0.06501343057063871, 0.5665773647621608, -1.764773401275191, 21.394953854733938)">
                <stop offset="0" style="stop-color: #7552ff"/>
                <stop offset="1" style="stop-color: #2f00eb"/>
              </linearGradient></defs>


<g transform="matrix(0.11283952742815018, 0, 0, 0.11283952742815018, -39.5316047668457, 12.541316390037537)"><path d="M 260.79998779296875 86.19999694824219" style="fill: rgb(23, 168, 247); fill-opacity: 1; stroke: rgb(0, 0, 0); stroke-opacity: 1; stroke-width: 0; paint-order: fill;"/><g transform="matrix(0.08818451315164565, 0, 0, 0.08818451315164565, 480.97341885170204, -219.85700573113832)"><g id="g-5" transform="matrix(1, 0, 0, 1, 0, 0)">
	<g id="g-6">
		<path class="st0" d="M652,46c27.6,0,50,22.4,50,50s-22.4,50-50,50s-50-22.4-50-50S624.4,46,652,46z" style="fill: rgb(255, 255, 255); stroke: rgb(0, 0, 0); stroke-width: 0;"/>
	</g>
</g></g><g transform="matrix(0.04028431273648727, 0, 0, 0.04028431273648727, 555.1267431107036, 124.11018964861495)"><g id="g-7" transform="matrix(1, 0, 0, 1, 0, 0)">
	<g id="g-8">
		<path class="st0" d="M652,46c27.6,0,50,22.4,50,50s-22.4,50-50,50s-50-22.4-50-50S624.4,46,652,46z" style="fill: rgb(255, 255, 255); stroke: rgb(0, 0, 0); stroke-width: 0;"/>
	</g>
</g></g><g transform="matrix(1.7988455295562742, 0, 0, 1.7988455295562742, 484.4134413141355, 591.8997771960031)"><g id="g-13" transform="matrix(1, 0, 0, 1, 0, 0)">
	<g id="g-14">
		<path class="st0" d="M58,49h100v100H58V49z" style="fill: rgb(255, 255, 255); stroke: rgb(0, 0, 0); stroke-width: 0;"/>
	</g>
</g></g><g transform="matrix(2.23841001983012, 0, 0, 2.23841001983012, -946.3697609597585, -144.82838785429016)"><g id="g-1" transform="matrix(1, 0, 0, 1, 0, 0)">
	<g id="g-2">
		<path class="st0" d="M652,46c27.6,0,50,22.4,50,50s-22.4,50-50,50s-50-22.4-50-50S624.4,46,652,46z" style="fill: url('#gradient-5'); fill-opacity: 1; stroke: rgb(252, 255, 242); stroke-width: 0;" transform="matrix(1, 0, 0, 1, 1.1997883966729432, 0.5998941983365107)"/>
	</g>
</g></g><g transform="matrix(0.08054734021425247, 0, 0, 0.08054734021425247, 491.0933943734421, 52.339717489141776)"><path class="st1" d="M1328.4,129.3c-2.2-6.2-7.7-10.8-14.4-11.8l-64.7-9.6l-28.1-58.4c-3-6.2-9.3-10.1-16.2-10.1&#10;&#9;c-7,0-13.3,3.9-16.3,10.1l-28.1,58.4l-64.7,9.6c-6.6,1-12.2,5.5-14.3,11.8c-2.1,6.2-0.5,13.1,4.2,17.8l47.5,47.3l-11,65.7&#10;&#9;c-1.1,6.6,1.7,13.2,7.4,17.1c3.1,2.1,6.7,3.2,10.3,3.2c3,0,6-0.7,8.7-2.2l56.5-30.4l56.4,30.4c2.7,1.5,5.7,2.2,8.7,2.2&#10;&#9;c3.6,0,7.3-1.1,10.4-3.2c5.6-3.9,8.5-10.5,7.4-17.1l-11-65.7l47.5-47.3C1328.9,142.4,1330.5,135.5,1328.4,129.3z" style="fill: rgb(255, 255, 255); opacity: 1; stroke: rgb(0, 0, 0); stroke-width: 0;" transform="matrix(1, 0, 0, 1, 0, 0)"/></g><g transform="matrix(0.09404963999986649, 0, 0, 0.09404963999986649, 409.28608236172335, 10.845299250953644)"><path class="st1" d="M1328.4,129.3c-2.2-6.2-7.7-10.8-14.4-11.8l-64.7-9.6l-28.1-58.4c-3-6.2-9.3-10.1-16.2-10.1&#10;&#9;c-7,0-13.3,3.9-16.3,10.1l-28.1,58.4l-64.7,9.6c-6.6,1-12.2,5.5-14.3,11.8c-2.1,6.2-0.5,13.1,4.2,17.8l47.5,47.3l-11,65.7&#10;&#9;c-1.1,6.6,1.7,13.2,7.4,17.1c3.1,2.1,6.7,3.2,10.3,3.2c3,0,6-0.7,8.7-2.2l56.5-30.4l56.4,30.4c2.7,1.5,5.7,2.2,8.7,2.2&#10;&#9;c3.6,0,7.3-1.1,10.4-3.2c5.6-3.9,8.5-10.5,7.4-17.1l-11-65.7l47.5-47.3C1328.9,142.4,1330.5,135.5,1328.4,129.3z" style="fill: rgb(255, 255, 255); opacity: 1; stroke: rgb(0, 0, 0); stroke-width: 0;" transform="matrix(1, 0, 0, 1, 0, 0)"/></g><g transform="matrix(0.0697455033659935, 0, 0, 0.0697455033659935, 355.1934085902161, 24.03343019813377)"><path class="st1" d="M1328.4,129.3c-2.2-6.2-7.7-10.8-14.4-11.8l-64.7-9.6l-28.1-58.4c-3-6.2-9.3-10.1-16.2-10.1&#10;&#9;c-7,0-13.3,3.9-16.3,10.1l-28.1,58.4l-64.7,9.6c-6.6,1-12.2,5.5-14.3,11.8c-2.1,6.2-0.5,13.1,4.2,17.8l47.5,47.3l-11,65.7&#10;&#9;c-1.1,6.6,1.7,13.2,7.4,17.1c3.1,2.1,6.7,3.2,10.3,3.2c3,0,6-0.7,8.7-2.2l56.5-30.4l56.4,30.4c2.7,1.5,5.7,2.2,8.7,2.2&#10;&#9;c3.6,0,7.3-1.1,10.4-3.2c5.6-3.9,8.5-10.5,7.4-17.1l-11-65.7l47.5-47.3C1328.9,142.4,1330.5,135.5,1328.4,129.3z" style="fill: rgb(255, 255, 255); opacity: 1; stroke: rgb(0, 0, 0); stroke-width: 0;" transform="matrix(1, 0, 0, 1, 0, 0)"/></g><g transform="matrix(1.27958295325328, 0.13121180718954323, -0.13121180718954323, 1.27958295325328, 307.5415284848279, -142.2266221947524)"/></g><g transform="matrix(0.00504530081525445, 0, 0, 0.00504530081525445, 24.06915283203125, 15.571467757225037)"><g id="g-11" transform="matrix(1, 0, 0, 1, 0, 0)">
	<g id="g-12">
		<path class="st0" d="M652,46c27.6,0,50,22.4,50,50s-22.4,50-50,50s-50-22.4-50-50S624.4,46,652,46z" style="fill: rgb(255, 255, 255);"/>
	</g>
</g></g><g transform="matrix(0.00504530081525445, 0, 0, 0.00504530081525445, 19.1424560546875, 10.77442491054535)"><g id="g-19" transform="matrix(1, 0, 0, 1, 0, 0)">
	<g id="g-20">
		<path class="st0" d="M652,46c27.6,0,50,22.4,50,50s-22.4,50-50,50s-50-22.4-50-50S624.4,46,652,46z" style="fill: rgb(255, 255, 255);"/>
	</g>
</g></g><g transform="matrix(0.00504530081525445, 0, 0, 0.00504530081525445, 9.567916870117188, 11.00097405910492)"><g id="g-3" transform="matrix(1, 0, 0, 1, 0, 0)">
	<g id="g-4">
		<path class="st0" d="M652,46c27.6,0,50,22.4,50,50s-22.4,50-50,50s-50-22.4-50-50S624.4,46,652,46z" style="fill: rgb(255, 255, 255);"/>
	</g>
</g></g><g transform="matrix(0.00504530081525445, 0, 0, 0.00504530081525445, 10.567916870117188, 14.000975012779236)"><g id="g-9" transform="matrix(1, 0, 0, 1, 0, 0)">
	<g id="g-10">
		<path class="st0" d="M652,46c27.6,0,50,22.4,50,50s-22.4,50-50,50s-50-22.4-50-50S624.4,46,652,46z" style="fill: rgb(255, 255, 255);"/>
	</g>
</g></g><g transform="matrix(0.1330714374780655, 0, 0, 0.1330714374780655, -49.64689254760742, -10.916727662086487)"><g transform="matrix(1, 0, 0, 1, -21.634469985961914, 103.53639221191403)"><path class="st0" d="M477.9,219.4c-2.2-4-3.5-8.6-3.5-13.4c0-13.8,10.4-25.6,24-27.4c3.9-14.1,16.6-23.8,31.3-23.8&#10;&#9;&#9;&#9;c1.7,0,3.5,0.1,5.3,0.4c6.3-10.6,16.8-17.8,28.7-20.1c-1.7-0.3-3.4-0.5-5.1-0.5c-3.2,0-6.5,0.5-9.6,1.5c-1,0.3-2-0.1-2.6-0.9&#10;&#9;&#9;&#9;c-7.1-11-19.1-17.6-32.2-17.6c-14,0-26.9,7.7-33.6,20c-0.5,0.9-1.5,1.3-2.4,1.1c-2-0.4-4-0.6-6-0.6c-13.2,0-24.4,9-27.3,21.8&#10;&#9;&#9;&#9;c-0.2,1-1,1.7-2,1.7c-12,0.9-21.4,11-21.4,23.1c0,12.8,10.4,23.1,23.1,23.1c2.7,0,5.3-0.5,7.9-1.4c0.9-0.3,2,0,2.6,0.8&#10;&#9;&#9;&#9;C460.5,214.6,468.8,219,477.9,219.4z" style="fill: rgb(255, 255, 255); opacity: 1;" transform="matrix(1, 0, 0, 1, 0, 0)"/><path class="st0" d="M616.1,155.9c-3.2,0-6.5,0.5-9.6,1.5c-1,0.3-2-0.1-2.6-0.9c-7.1-11-19.1-17.6-32.2-17.6&#10;&#9;&#9;&#9;c-14,0-26.9,7.7-33.6,20c-0.5,0.9-1.5,1.3-2.4,1.1c-2-0.4-4-0.6-6-0.6c-13.2,0-24.4,9-27.3,21.8c-0.2,1-1,1.7-2,1.7&#10;&#9;&#9;&#9;c-12,0.9-21.4,11-21.4,23.1c0,12.8,10.4,23.1,23.1,23.1c2.7,0,5.3-0.5,7.9-1.4c0.9-0.3,2,0,2.6,0.8c5.8,7.8,14.7,12.3,24.3,12.3&#10;&#9;&#9;&#9;c9.3,0,17.9-4.2,23.7-11.5c0.4-0.5,1.1-0.8,1.8-0.8c0,0,0,0,0.1,0c0.7,0,1.4,0.4,1.8,0.9c5.3,7.4,13.8,11.8,22.8,11.8&#10;&#9;&#9;&#9;c8.7,0,16.7-3.9,22.1-10.8c0.7-0.8,1.8-1.1,2.8-0.6c1.8,0.9,3.6,1.4,5.4,1.4c6.6,0,12-5.4,12-12c0-0.3,0-0.6-0.1-1l-0.1-0.5&#10;&#9;&#9;&#9;c-0.1-0.9,0.4-1.8,1.2-2.3c10.6-5.4,17.2-16.2,17.2-28C647.6,170,633.5,155.9,616.1,155.9z" style="fill: rgb(255, 255, 255); opacity: 1;" transform="matrix(1, 0, 0, 1, 0, 0)"/></g></g><path d="M 43.6501350402832 5.648036003112793 L 44.04745101928711 5.601790428161621 C 44.590450286865234 5.538588523864746 45.223934173583984 5.531972408294678 45.947898864746094 5.581940650939941 C 46.666015625 5.63930082321167 47.22819519042969 5.6544060707092285 47.63444900512695 5.627256393432617 C 48.041473388671875 5.6067280769348145 48.36857604980469 5.649195194244385 48.61575698852539 5.754657745361328 C 49.095340728759766 5.953880786895752 49.39756393432617 6.589871406555176 49.52242660522461 7.662629127502441 C 49.64728927612305 8.735386848449707 49.50775146484375 9.295273780822754 49.10380935668945 9.342289924621582 C 48.971370697021484 9.357705116271973 48.61220932006836 9.097484588623047 48.026329040527344 8.561626434326172 C 47.43459701538086 8.033162117004395 46.88862228393555 7.667162895202637 46.388404846191406 7.463630676269531 C 45.49500274658203 7.111222743988037 44.52847671508789 6.995523929595947 43.48883056640625 7.116532802581787 C 42.892852783203125 7.185900688171387 42.31245040893555 7.417891979217529 41.747615814208984 7.812507152557373 C 40.03325653076172 8.998664855957031 39.365299224853516 11.217434883117676 39.74374008178711 14.468817710876465 C 39.991294860839844 16.4803524017334 40.651058197021484 18.05463218688965 41.72303771972656 19.191654205322266 C 42.800865173339844 20.321285247802734 44.170833587646484 20.789369583129883 45.83294677734375 20.595909118652344 C 47.25004577636719 20.430967330932617 48.3975944519043 19.824228286743164 49.27558898925781 18.77568817138672 C 49.816986083984375 18.122045516967773 50.17376708984375 17.78520393371582 50.3459358215332 17.765165328979492 C 50.670413970947266 17.727397918701172 50.86001205444336 17.943593978881836 50.914737701416016 18.413753509521484 C 50.94325637817383 18.65876579284668 50.83819580078125 19.053560256958008 50.59955596923828 19.598134994506836 C 50.35429000854492 20.14348030090332 50.05857849121094 20.543685913085938 49.7124137878418 20.798751831054688 C 48.733970642089844 21.503263473510742 47.40375900268555 21.953405380249023 45.721778869628906 22.14917755126953 L 45.31452941894531 22.196578979492188 C 44.38083267211914 22.305255889892578 43.41054153442383 22.243688583374023 42.403656005859375 22.011877059936523 C 40.37664031982422 21.549795150756836 38.85374069213867 20.34444808959961 37.834957122802734 18.395832061767578 C 37.306922912597656 17.376712799072266 36.969688415527344 16.238067626953125 36.8232421875 14.979893684387207 C 36.676029205322266 13.715099334716797 36.74311447143555 12.532748222351074 37.024505615234375 11.432840347290039 C 37.58928298950195 9.192521095275879 38.800392150878906 7.574986457824707 40.65784454345703 6.580236911773682 C 41.59981155395508 6.081320762634277 42.59724044799805 5.7705864906311035 43.6501350402832 5.648036003112793 ZM 54.34213638305664 20.67831039428711 C 54.32838439941406 20.5122127532959 54.490440368652344 20.288076400756836 54.82830810546875 20.00589942932129 C 55.15898132324219 19.717628479003906 55.36460494995117 19.292545318603516 55.4451789855957 18.73064613342285 C 55.526302337646484 18.175392150878906 55.416954040527344 16.08729362487793 55.11713409423828 12.466351509094238 C 54.81731414794922 8.845410346984863 54.6041374206543 6.796011447906494 54.47760772705078 6.3181562423706055 C 54.35826873779297 5.846395492553711 54.13034439086914 5.517414093017578 53.79383087158203 5.331214904785156 C 53.25474166870117 5.041377544403076 52.98189926147461 4.856595516204834 52.97529602050781 4.7768683433532715 L 52.9637451171875 4.6373467445373535 C 52.95273971557617 4.504467964172363 53.056060791015625 4.378847122192383 53.27370071411133 4.260483264923096 C 53.94601058959961 3.8971002101898193 54.86682891845703 3.6669962406158447 56.03615951538086 3.570173501968384 L 56.265377044677734 3.551194190979004 C 56.66401290893555 3.518186330795288 56.91550827026367 3.7682864665985107 57.01986312866211 4.301492691040039 C 57.03865051269531 4.366832733154297 57.0939826965332 4.9542694091796875 57.185855865478516 6.063806056976318 L 57.393802642822266 8.575210571289062 L 57.41347885131836 9.055224418640137 L 57.474544525146484 9.79270076751709 L 57.504188537597656 10.271888732910156 C 57.504188537597656 10.271888732910156 57.60623550415039 11.504337310791016 57.810333251953125 13.96923542022705 C 58.00122833251953 16.27467918395996 58.15604782104492 17.700098037719727 58.2747917175293 18.245492935180664 C 58.39298629760742 18.784244537353516 58.60205841064453 19.16830062866211 58.902008056640625 19.39766502380371 C 58.93023681640625 19.415395736694336 59.10126495361328 19.501577377319336 59.41509246826172 19.656208038330078 C 59.7222785949707 19.81138801574707 59.883575439453125 19.981992721557617 59.89897918701172 20.16802406311035 C 59.92153549194336 20.4404239654541 59.45112609863281 20.61650848388672 58.48775863647461 20.696277618408203 L 58.011871337890625 20.765785217285156 L 57.53350830078125 20.805395126342773 L 55.62253189086914 20.993728637695312 L 55.373382568359375 21.014358520507812 C 54.70899200439453 21.069372177124023 54.36524200439453 20.957355499267578 54.34213638305664 20.67831039428711 ZM 64.93596649169922 14.213972091674805 L 64.96305084228516 14.653138160705566 C 65.04472351074219 15.977288246154785 65.37194061279297 17.05919647216797 65.94471740722656 17.898862838745117 C 66.20970916748047 18.29663848876953 66.5361099243164 18.607133865356445 66.92391967773438 18.830350875854492 C 67.3179702758789 19.0465030670166 67.70463562011719 19.14288330078125 68.08391571044922 19.119489669799805 L 68.31348419189453 19.105331420898438 C 69.02545928955078 19.061418533325195 69.61962127685547 18.677448272705078 70.09595489501953 17.953418731689453 C 70.57269287109375 17.23604393005371 70.7718734741211 16.241897583007812 70.69348907470703 14.970978736877441 L 70.64177703857422 14.132572174072266 C 70.56462097167969 12.88161563873291 70.23945617675781 11.832977294921875 69.66626739501953 10.98665714263916 C 69.09307861328125 10.140336990356445 68.41057586669922 9.741595268249512 67.61874389648438 9.790432929992676 L 67.24944305419922 9.813209533691406 C 66.53081512451172 9.857532501220703 65.94577026367188 10.28101634979248 65.49432373046875 11.083662986755371 C 65.04287719726562 11.886309623718262 64.85675811767578 12.9297456741333 64.93596649169922 14.213972091674805 M 73.44288635253906 13.739392280578613 L 73.47920989990234 14.328272819519043 C 73.51696014404297 14.940442085266113 73.43531036376953 15.620091438293457 73.23426055908203 16.367218017578125 C 72.802978515625 17.930065155029297 71.82769775390625 19.065589904785156 70.30841827392578 19.773792266845703 C 69.64571380615234 20.075159072875977 68.998291015625 20.245336532592773 68.36615753173828 20.284324645996094 L 67.97689819335938 20.308332443237305 C 66.49304962158203 20.399850845336914 65.22129821777344 19.977338790893555 64.16163635253906 19.040794372558594 C 63.68125534057617 18.616228103637695 63.27522659301758 18.04347038269043 62.94355010986328 17.322519302368164 C 62.618526458740234 16.601160049438477 62.43016052246094 15.821276664733887 62.378448486328125 14.982870101928711 L 62.36613845825195 14.783248901367188 C 62.31976318359375 14.031344413757324 62.405853271484375 13.261251449584961 62.62440872192383 12.472968101501465 C 63.04401779174805 10.937559127807617 63.990997314453125 9.830496788024902 65.46534729003906 9.151782989501953 C 66.12763977050781 8.843761444091797 66.76819610595703 8.67066764831543 67.38702392578125 8.632501602172852 L 67.97590637207031 8.59618091583252 C 68.66792297363281 8.553500175476074 69.35960388183594 8.667803764343262 70.05094909667969 8.939093589782715 C 71.35839080810547 9.45291519165039 72.30145263671875 10.339877128601074 72.88011932373047 11.599977493286133 C 73.21343994140625 12.347543716430664 73.4010238647461 13.060681343078613 73.44288635253906 13.739392280578613 ZM 88.25428771972656 17.822025299072266 C 88.25428771972656 17.822025299072266 88.34358978271484 17.885122299194336 88.52218627929688 18.011320114135742 C 88.7007827758789 18.137516021728516 88.7923812866211 18.257234573364258 88.7969741821289 18.370473861694336 C 88.80156707763672 18.483715057373047 88.74594116210938 18.59272575378418 88.63009643554688 18.697509765625 C 88.3094711303711 19.017436981201172 87.599609375 19.19969940185547 86.5005111694336 19.244295120239258 C 86.14080810546875 19.25889015197754 85.85860443115234 19.210290908813477 85.65390014648438 19.09849739074707 C 85.44920349121094 18.986703872680664 85.26376342773438 18.7740478515625 85.09757995605469 18.460527420043945 C 84.93140411376953 18.14700698852539 84.79835510253906 17.992273330688477 84.69843292236328 17.996326446533203 C 84.59878540039062 18.007041931152344 84.37744140625 18.142793655395508 84.0344009399414 18.403583526611328 C 83.07746124267578 19.156330108642578 82.15269470214844 19.550813674926758 81.26009368896484 19.5870304107666 C 81.24677276611328 19.587570190429688 81.23345184326172 19.588111877441406 81.22013092041016 19.588651657104492 L 80.87041473388672 19.602840423583984 C 79.58480834960938 19.655004501342773 78.63008117675781 19.146625518798828 78.00623321533203 18.07770538330078 C 77.68323516845703 17.517005920410156 77.47673797607422 16.1275691986084 77.38673400878906 13.909394264221191 C 77.29006958007812 11.691489219665527 77.2038345336914 10.470647811889648 77.12803649902344 10.246870994567871 C 77.04584503173828 10.030024528503418 76.78753662109375 9.83033275604248 76.35311126708984 9.647794723510742 C 75.91868591308594 9.465256690979004 75.69931030273438 9.320697784423828 75.69499206542969 9.214118957519531 C 75.68309783935547 8.921027183532715 75.81195068359375 8.725643157958984 76.08154296875 8.627965927124023 C 76.68653106689453 8.409926414489746 77.46197509765625 8.281717300415039 78.4078598022461 8.243337631225586 C 78.9540786743164 8.221175193786621 79.30951690673828 8.430270195007324 79.47416687011719 8.870623588562012 C 79.69031524658203 9.428986549377441 79.842041015625 10.78394889831543 79.9293441772461 12.93551254272461 C 80.01663970947266 15.087075233459473 80.16287231445312 16.388883590698242 80.36803436279297 16.840938568115234 C 80.71993255615234 17.62064552307129 81.3188705444336 17.993337631225586 82.16484069824219 17.959012985229492 C 82.59781646728516 17.941444396972656 83.02619934082031 17.810636520385742 83.44998931884766 17.566587448120117 C 83.88043212890625 17.322269439697266 84.20772552490234 17.002071380615234 84.43184661865234 16.60599136352539 C 84.65625 16.21657371520996 84.73344421386719 15.159241676330566 84.66344451904297 13.433995246887207 C 84.59371185302734 11.715409278869629 84.49317169189453 10.635263442993164 84.36182403564453 10.193558692932129 C 84.23047637939453 9.751853942871094 84.0430908203125 9.40916919708252 83.7996826171875 9.165504455566406 C 83.55626678466797 8.92183780670166 83.43158721923828 8.72673225402832 83.42564392089844 8.58018684387207 C 83.41159057617188 8.233805656433105 84.32047271728516 8.023451805114746 86.15230560302734 7.94912576675415 C 86.53865051269531 7.933449745178223 86.79196166992188 8.009909629821777 86.91222381591797 8.178504943847656 C 87.03888702392578 8.340169906616211 87.11126708984375 8.64415168762207 87.12937927246094 9.09045124053955 L 87.11738586425781 9.781506538391113 L 87.18351745605469 12.89138126373291 C 87.26595306396484 14.923043251037598 87.37738800048828 16.18956756591797 87.51782989501953 16.69095230102539 C 87.65800476074219 17.18567657470703 87.90348815917969 17.562700271606445 88.25428771972656 17.822025299072266 ZM 99.5429458618164 10.792414665222168 C 99.52923583984375 10.15923023223877 99.31504821777344 9.660416603088379 98.900390625 9.295976638793945 C 98.485595703125 8.924871444702148 97.94160461425781 8.746609687805176 97.2684326171875 8.761189460754395 L 97.0484848022461 8.765953063964844 C 96.69522857666016 8.773604393005371 96.32089233398438 8.885068893432617 95.92546081542969 9.100348472595215 C 95.53683471679688 9.322149276733398 95.21688842773438 9.635817527770996 94.96561431884766 10.041353225708008 C 94.46957397460938 10.845616340637207 94.23433685302734 11.83760929107666 94.2598876953125 13.017333030700684 L 94.27482604980469 13.707171440124512 C 94.30023193359375 14.880228996276855 94.58451080322266 15.844300270080566 95.12765502929688 16.599382400512695 C 95.6707992553711 17.35446548461914 96.32228088378906 17.723777770996094 97.08209991455078 17.707321166992188 L 97.4220199584961 17.69995880126953 C 98.08187103271484 17.6856689453125 98.61683654785156 17.44736099243164 99.02691650390625 16.98504066467285 C 99.44367218017578 16.522573471069336 99.64439392089844 15.938090324401855 99.62908935546875 15.231590270996094 L 99.64389038085938 14.991212844848633 L 99.63847351074219 14.74127197265625 L 99.645263671875 14.1309814453125 C 99.63717651367188 13.757735252380371 99.62909698486328 13.384490013122559 99.62100982666016 13.01124382019043 L 99.63278198242188 12.630900382995605 L 99.62498474121094 12.270984649658203 L 99.6021728515625 12.141448020935059 L 99.5887451171875 11.52159309387207 L 99.5761489868164 11.401838302612305 L 99.57095336914062 11.161894798278809 C 99.55416107177734 11.002220153808594 99.5448226928711 10.879060745239258 99.5429458618164 10.792414665222168 M 99.53125762939453 7.48189115524292 C 99.53125762939453 7.48189115524292 99.54698181152344 7.438207149505615 99.57843017578125 7.350838661193848 C 99.6098861694336 7.2634711265563965 99.61629486083984 6.78988790512085 99.59767150878906 5.930088996887207 C 99.57904815673828 5.070291042327881 99.4987564086914 4.441882133483887 99.35679626464844 4.044863224029541 C 99.21469116210938 3.641179084777832 98.97752380371094 3.312903642654419 98.64530181884766 3.0600388050079346 C 98.3064193725586 2.807316303253174 98.13553619384766 2.614306688308716 98.13264465332031 2.4810028076171875 C 98.1297607421875 2.347700834274292 98.21720886230469 2.2291126251220703 98.39500427246094 2.125239849090576 C 98.86882781982422 1.8349112272262573 99.65560913085938 1.6778383255004883 100.75535583496094 1.6540194749832153 L 101.03528594970703 1.6479564905166626 C 101.58182525634766 1.6361191272735596 101.89803314208984 1.9193376302719116 101.9839096069336 2.4976136684417725 C 102.01446533203125 2.6769943237304688 102.07615661621094 4.909515380859375 102.16897583007812 9.19517707824707 C 102.26179504394531 13.480838775634766 102.3427505493164 15.83297061920166 102.41182708740234 16.25157356262207 C 102.48743438720703 16.663366317749023 102.64440155029297 16.983375549316406 102.88272857666016 17.21160125732422 C 102.9305419921875 17.263912200927734 103.08309936523438 17.38063621520996 103.34041595458984 17.5617733001709 C 103.5978775024414 17.749574661254883 103.72819519042969 17.916791915893555 103.73136901855469 18.063425064086914 C 103.73440551757812 18.203392028808594 103.62724304199219 18.335742950439453 103.40989685058594 18.460479736328125 C 102.9685287475586 18.710094451904297 102.24462890625 18.845802307128906 101.23820495605469 18.867599487304688 C 100.89161682128906 18.875106811523438 100.60944366455078 18.777860641479492 100.39168548583984 18.57586097717285 C 99.96935272216797 18.16490936279297 99.73819732666016 17.959867477416992 99.69820404052734 17.96073341369629 C 99.66487884521484 17.961454391479492 99.49020385742188 18.055259704589844 99.1741714477539 18.242145538330078 C 98.85814666748047 18.429033279418945 98.47887420654297 18.620624542236328 98.0363540649414 18.816919326782227 C 97.58702087402344 19.00669288635254 97.03244018554688 19.108726501464844 96.37258911132812 19.123016357421875 C 95.7060775756836 19.137453079223633 95.08979034423828 19.00743293762207 94.52371215820312 18.732959747314453 C 93.47240447998047 18.222270965576172 92.72352600097656 17.358285903930664 92.27706146240234 16.141000747680664 C 92.00790405273438 15.413324356079102 91.86387634277344 14.612922668457031 91.84496307373047 13.73979377746582 C 91.80670928955078 11.973541259765625 92.28215026855469 10.526241302490234 93.27127838134766 9.3978910446167 C 94.26026916503906 8.262876510620117 95.6445541381836 7.676098346710205 97.42413330078125 7.63755464553833 L 98.9568099975586 7.744391441345215 C 99.27007293701172 7.737606525421143 99.46155548095703 7.650106906890869 99.53125762939453 7.48189115524292 ZM 124.19072723388672 2.3523035049438477 C 125.5907211303711 2.3573720455169678 126.28787994384766 3.1432340145111084 126.2822036743164 4.709890365600586 C 126.28070831298828 5.123221397399902 126.1899642944336 5.329560279846191 126.00996398925781 5.328908443450928 C 125.9032974243164 5.328522205352783 125.66371154785156 5.214321613311768 125.29119873046875 4.986304759979248 C 124.91204833984375 4.751596927642822 124.59596252441406 4.590451717376709 124.34294128417969 4.502868175506592 C 123.23766326904297 4.118864059448242 122.25502014160156 3.9253056049346924 121.39502716064453 3.922192096710205 C 120.5350341796875 3.9190783500671387 119.94427490234375 4.126941204071045 119.62275695800781 4.545779705047607 C 119.17396545410156 5.130825042724609 118.94673919677734 6.206676006317139 118.94107055664062 7.773332595825195 C 118.93901824951172 8.339995384216309 119.13082885742188 8.760692596435547 119.5165023803711 9.03542423248291 C 119.8955078125 9.310132026672363 120.33168029785156 9.448378562927246 120.82501220703125 9.450163841247559 C 121.32500457763672 9.451974868774414 121.83228302001953 9.283809661865234 122.34684753417969 8.945670127868652 C 122.854736328125 8.60750675201416 123.11202239990234 8.438438415527344 123.11868286132812 8.438462257385254 C 123.51201629638672 8.439886093139648 123.78146362304688 8.594195365905762 123.92701721191406 8.90139102935791 C 124.06592559814453 9.201895713806152 124.13414001464844 9.695480346679688 124.13165283203125 10.382142066955566 C 124.12726593017578 11.595466613769531 123.84840393066406 12.201128959655762 123.29507446289062 12.199125289916992 C 123.14840698242188 12.198594093322754 122.8424301147461 12.007485389709473 122.37714385986328 11.625798225402832 C 121.90518951416016 11.244086265563965 121.40921020507812 11.052289962768555 120.88921356201172 11.050407409667969 C 119.98921966552734 11.047148704528809 119.39186096191406 11.238321304321289 119.09712982177734 11.623922348022461 C 118.89623260498047 11.869863510131836 118.79351806640625 12.619497299194336 118.78898620605469 13.872821807861328 C 118.78446960449219 15.11948013305664 119.0044937133789 16.03361701965332 119.44905853271484 16.615230560302734 C 119.70123291015625 16.93614387512207 120.29731750488281 17.098304748535156 121.23731231689453 17.101707458496094 C 122.18396759033203 17.105134963989258 123.28803253173828 16.905797958374023 124.54949951171875 16.503694534301758 C 124.90321350097656 16.39830780029297 125.18367004394531 16.272655487060547 125.390869140625 16.126737594604492 C 125.60475158691406 15.974178314208984 125.8219985961914 15.814964294433594 126.0426025390625 15.649094581604004 C 126.25653839111328 15.48320198059082 126.39350128173828 15.40036392211914 126.45349884033203 15.400580406188965 C 126.7135009765625 15.401521682739258 126.843017578125 15.535325050354004 126.84204864501953 15.801989555358887 L 126.84071350097656 16.171987533569336 C 126.83853912353516 16.771984100341797 126.7334213256836 17.26494026184082 126.52535247802734 17.650856018066406 C 126.31729125976562 18.036771774291992 126.12972259521484 18.286094665527344 125.962646484375 18.398822784423828 C 125.64192199707031 18.59766387939453 124.36823272705078 18.693052291870117 122.14158630371094 18.68499183654785 L 120.59159088134766 18.679380416870117 L 120.0716323852539 18.667497634887695 C 117.13165283203125 18.65685272216797 115.43511962890625 18.61737823486328 114.98202514648438 18.549070358276367 C 114.52893829345703 18.480762481689453 114.30290222167969 18.306610107421875 114.30391693115234 18.026611328125 C 114.3045654296875 17.84661293029785 114.51538848876953 17.620708465576172 114.93637084960938 17.348896026611328 C 115.35736083984375 17.077085494995117 115.6319351196289 16.734745025634766 115.76009368896484 16.32187271118164 C 115.88825988769531 15.909000396728516 115.95745849609375 14.289239883422852 115.96768951416016 11.462592124938965 L 116.02430725097656 6.872766494750977 C 116.02973937988281 5.372776031494141 115.93975830078125 4.4457783699035645 115.7543716430664 4.091771125793457 C 115.6683120727539 3.924792528152466 115.42900085449219 3.733924388885498 115.03644561767578 3.5191686153411865 C 114.63719177246094 3.3110547065734863 114.43787384033203 3.1236653327941895 114.4384765625 2.9569995403289795 C 114.43960571289062 2.6436691284179688 114.69364929199219 2.4479198455810547 115.20060729980469 2.3697547912597656 C 115.41403198242188 2.343860626220703 117.0740737915039 2.336538314819336 120.18071746826172 2.347785711288452 L 123.70072937011719 2.350529432296753 L 124.19072723388672 2.3523035049438477 ZM 138.45301818847656 16.70292854309082 C 138.45301818847656 16.70292854309082 138.47152709960938 16.63003921508789 138.50856018066406 16.48426055908203 C 138.53907775878906 16.331647872924805 138.5767822265625 15.365625381469727 138.62167358398438 13.586191177368164 C 138.66656494140625 11.806756973266602 138.5592803955078 10.640347480773926 138.29981994628906 10.086960792541504 C 138.0403594970703 9.533576011657715 137.54074096679688 9.247551918029785 136.8009796142578 9.228890419006348 C 136.35446166992188 9.217625617980957 135.88690185546875 9.379219055175781 135.3983154296875 9.713671684265137 C 134.9163818359375 10.048290252685547 134.59349060058594 10.423600196838379 134.4296112060547 10.839599609375 C 134.25889587402344 11.26209545135498 134.1541290283203 12.243098258972168 134.11529541015625 13.782608985900879 C 134.0764617919922 15.32211971282959 134.06582641601562 16.272153854370117 134.08340454101562 16.63271141052246 C 134.10098266601562 16.993268966674805 134.15048217773438 17.27794075012207 134.23191833496094 17.48672866821289 L 134.3745574951172 17.780418395996094 C 134.49513244628906 18.023536682128906 134.55398559570312 18.201744079589844 134.55113220214844 18.31504249572754 C 134.5438995361328 18.60161781311035 133.9438018798828 18.7298583984375 132.7508544921875 18.699764251708984 C 131.55789184570312 18.66967010498047 130.7845001220703 18.530120849609375 130.43067932128906 18.281118392944336 L 130.22628784179688 18.055892944335938 C 130.23184204101562 17.835962295532227 130.31326293945312 17.64795684814453 130.47059631347656 17.49187469482422 C 130.9490509033203 17.030460357666016 131.2347869873047 16.674219131469727 131.32781982421875 16.423152923583984 C 131.42066955566406 16.17875099182129 131.4918975830078 15.073528289794922 131.54150390625 13.107486724853516 C 131.59109497070312 11.141446113586426 131.45684814453125 9.854317665100098 131.1387481689453 9.246102333068848 L 130.8968963623047 8.919898986816406 C 130.70335388183594 8.661602973937988 130.60833740234375 8.46247673034668 130.61187744140625 8.322521209716797 C 130.615234375 8.189230918884277 130.76588439941406 8.032979965209961 131.0638427734375 7.853770732879639 C 131.3616180419922 7.681224822998047 131.82040405273438 7.60276985168457 132.44021606445312 7.618405342102051 C 133.0600128173828 7.634040832519531 133.52232360839844 7.8124237060546875 133.8271484375 8.153552055358887 C 134.1321563720703 8.488017082214355 134.35128784179688 8.656929969787598 134.48458862304688 8.660292625427246 L 134.83851623535156 8.509170532226562 L 135.74159240722656 8.00178337097168 C 136.4776153564453 7.64022970199585 137.21884155273438 7.468868255615234 137.96527099609375 7.487698078155518 C 138.71835327148438 7.5066962242126465 139.4290771484375 7.751363754272461 140.09742736816406 8.221701622009277 C 140.76560974121094 8.69870376586914 141.18301391601562 8.93930721282959 141.34962463378906 8.943510055541992 L 141.75428771972656 8.763657569885254 L 142.20071411132812 8.514837265014648 C 142.5726318359375 8.31081771850586 142.97071838378906 8.12746524810791 143.39495849609375 7.964778423309326 C 143.8058624267578 7.801755905151367 144.34788513183594 7.728735446929932 145.02099609375 7.745715618133545 C 146.30059814453125 7.777995586395264 147.193603515625 8.33069133758545 147.70004272460938 9.403804779052734 C 148.06674194335938 10.199971199035645 148.2138671875 12.034265518188477 148.1414031982422 14.906684875488281 C 148.1103057861328 16.139625549316406 148.13221740722656 16.857072830200195 148.20713806152344 17.05902671813965 C 148.28207397460938 17.2609806060791 148.4859619140625 17.506200790405273 148.81878662109375 17.79468536376953 C 149.1582794189453 18.08333969116211 149.3274383544922 18.250991821289062 149.32626342773438 18.297643661499023 L 149.31919860839844 18.57755470275879 L 149.083984375 18.781688690185547 C 148.70504760742188 18.99886703491211 147.75250244140625 19.088207244873047 146.226318359375 19.049707412719727 C 145.48654174804688 19.03104591369629 145.12120056152344 18.841772079467773 145.13027954101562 18.48188591003418 C 145.13111877441406 18.448562622070312 145.18881225585938 18.276630401611328 145.3033447265625 17.96608543395996 C 145.41787719726562 17.655542373657227 145.48757934570312 17.403886795043945 145.512451171875 17.211118698120117 C 145.53732299804688 17.018352508544922 145.57237243652344 16.02558708190918 145.6175994873047 14.232824325561523 C 145.66299438476562 12.433396339416504 145.60142517089844 11.304818153381348 145.43292236328125 10.847090721130371 C 145.271240234375 10.382864952087402 145.0635528564453 10.02418041229248 144.8098602294922 9.771035194396973 C 144.55616760253906 9.517889976501465 144.16273498535156 9.384592056274414 143.6295623779297 9.371142387390137 C 143.09640502929688 9.35769271850586 142.64285278320312 9.492963790893555 142.26890563964844 9.776957511901855 C 141.89512634277344 10.054286003112793 141.63046264648438 10.367711067199707 141.4749298095703 10.717233657836914 C 141.31924438476562 11.073420524597168 141.21885681152344 12.144562721252441 141.17379760742188 13.930662155151367 C 141.1287384033203 15.71675968170166 141.156005859375 16.751110076904297 141.2555694580078 17.033710479736328 C 141.3551483154297 17.31631088256836 141.55160522460938 17.591354370117188 141.84495544433594 17.858837127685547 C 142.14479064941406 18.13315200805664 142.2936248779297 18.313629150390625 142.29144287109375 18.4002685546875 C 142.28152465820312 18.793476104736328 141.59344482421875 18.972848892211914 140.2272186279297 18.938383102416992 L 138.57774353027344 18.896772384643555 C 137.75799560546875 18.8760929107666 137.3511505126953 18.745790481567383 137.35720825195312 18.50586700439453 C 137.36326599121094 18.26594352722168 137.47227478027344 18.041955947875977 137.68426513671875 17.83390235900879 C 138.13587951660156 17.37847900390625 138.3921356201172 17.001489639282227 138.45301818847656 16.70292854309082 ZM 161.79005432128906 14.562180519104004 L 161.8243408203125 13.873032569885254 C 161.8865966796875 12.621247291564941 161.67677307128906 11.60623550415039 161.19483947753906 10.827997207641602 C 160.71923828125 10.05674934387207 160.0919189453125 9.651747703552246 159.31288146972656 9.612994194030762 L 159.1930389404297 9.607032775878906 C 158.76023864746094 9.585503578186035 158.33828735351562 9.68132495880127 157.92718505859375 9.89449691772461 C 157.50909423828125 10.113995552062988 157.1810760498047 10.401387214660645 156.94313049316406 10.756670951843262 C 156.71185302734375 11.112285614013672 156.55149841308594 12.188981056213379 156.46206665039062 13.9867582321167 L 156.41287231445312 14.97553539276123 L 156.41639709472656 15.10587215423584 L 156.39205932617188 15.595266342163086 L 156.39608764648438 15.715615272521973 L 156.3836669921875 15.965306282043457 C 156.39503479003906 16.139419555664062 156.39889526367188 16.263097763061523 156.39524841308594 16.336339950561523 C 156.36212158203125 17.00218391418457 156.5493621826172 17.532140731811523 156.9569549560547 17.926210403442383 C 157.3648681640625 18.313623428344727 157.92506408691406 18.525049209594727 158.63751220703125 18.560489654541016 L 158.7573699951172 18.566452026367188 C 159.61630249023438 18.60917854309082 160.3216552734375 18.25044822692871 160.87344360351562 17.490257263183594 C 161.42555236816406 16.723407745361328 161.73109436035156 15.747381210327148 161.79005432128906 14.562180519104004 M 156.85543823242188 19.36294174194336 C 156.44927978515625 19.342737197875977 156.22003173828125 19.858652114868164 156.16769409179688 20.91068458557129 C 156.11569213867188 21.956058502197266 156.15914916992188 22.625709533691406 156.2980499267578 22.919641494750977 C 156.43695068359375 23.213571548461914 156.6670684814453 23.485340118408203 156.98838806152344 23.734947204589844 C 157.31637573242188 23.98488426208496 157.47622680664062 24.193082809448242 157.46795654296875 24.35954475402832 C 157.4503936767578 24.712440490722656 156.93557739257812 24.86371612548828 155.92349243164062 24.813371658325195 L 154.75494384765625 24.75524139404297 C 152.97714233398438 24.666805267333984 152.09718322753906 24.44281005859375 152.1150665283203 24.083253860473633 C 152.12069702148438 23.970060348510742 152.36065673828125 23.70832633972168 152.8349609375 23.298051834106445 C 153.0862579345703 23.07693099975586 153.29971313476562 22.610292434692383 153.47531127929688 21.89813804626465 C 153.65057373046875 21.19264030456543 153.78773498535156 19.84445571899414 153.8867645263672 17.85358428955078 L 154.1282196044922 12.999587059020996 L 154.17034912109375 11.750136375427246 C 154.2084503173828 10.984416961669922 154.133056640625 10.419974327087402 153.94419860839844 10.056809425354004 C 153.87757873535156 9.919997215270996 153.68344116210938 9.730116844177246 153.36178588867188 9.48716926574707 C 153.047119140625 9.237894058227539 152.8939208984375 9.03002643585205 152.90220642089844 8.863566398620605 C 152.91015625 8.703763008117676 153.00965881347656 8.581891059875488 153.2007293701172 8.497946739196777 C 153.82821655273438 8.228789329528809 154.64134216308594 8.119051933288574 155.64010620117188 8.16873550415039 C 155.89312744140625 8.18132209777832 156.14834594726562 8.35087776184082 156.40577697753906 8.677404403686523 C 156.65655517578125 9.003600120544434 156.798583984375 9.167526245117188 156.8318634033203 9.169181823730469 C 156.9583740234375 9.175475120544434 157.21670532226562 9.081526756286621 157.60682678222656 8.887336730957031 C 157.99063110351562 8.686156272888184 158.19618225097656 8.579570770263672 158.22348022460938 8.567578315734863 C 158.9115447998047 8.288084983825684 159.50193786621094 8.16059398651123 159.9946746826172 8.185104370117188 L 160.60391235351562 8.215411186218262 C 161.03671264648438 8.236940383911133 161.5233154296875 8.384632110595703 162.06370544433594 8.658485412597656 C 163.106201171875 9.170912742614746 163.82569885253906 10.071105003356934 164.22219848632812 11.359061241149902 C 164.45843505859375 12.111727714538574 164.5591583251953 12.837628364562988 164.52438354492188 13.536764144897461 L 164.49159240722656 14.19594955444336 C 164.45547485351562 14.92171859741211 164.26856994628906 15.66001033782959 163.93084716796875 16.410825729370117 C 163.26971435546875 17.893142700195312 162.22976684570312 18.872684478759766 160.8109893798828 19.349451065063477 C 160.20680236816406 19.553016662597656 159.50852966308594 19.63509178161621 158.71617126464844 19.59567642211914 L 156.85543823242188 19.36294174194336 ZM 172.52059936523438 5.398288726806641 C 172.49700927734375 5.744152545928955 172.3289031982422 6.053428649902344 172.0162811279297 6.326119422912598 C 171.70367431640625 6.598809719085693 171.40103149414062 6.725174427032471 171.10838317871094 6.705211639404297 C 171.047607421875 6.714430809020996 170.9972686767578 6.717679023742676 170.95736694335938 6.714956760406494 L 170.6966094970703 6.717216968536377 C 170.3108367919922 6.690902233123779 169.97027587890625 6.540709972381592 169.67489624023438 6.266640663146973 C 169.3866424560547 5.986372947692871 169.25634765625 5.643377780914307 169.28402709960938 5.237654209136963 L 169.29830932617188 5.028141021728516 C 169.32598876953125 4.622416973114014 169.5120849609375 4.294320583343506 169.85659790039062 4.043852806091309 C 170.1949005126953 3.786278486251831 170.576904296875 3.672010660171509 171.00257873535156 3.70104718208313 L 171.06243896484375 3.7051305770874023 L 171.44813537597656 3.781554937362671 C 171.69422912597656 3.798341751098633 171.93812561035156 3.945281744003296 172.17982482910156 4.222371578216553 C 172.42153930664062 4.49946403503418 172.53330993652344 4.771033763885498 172.51516723632812 5.037082195281982 L 172.53761291503906 5.148868560791016 L 172.52059936523438 5.398288726806641 M 168.4433135986328 10.362321853637695 C 168.4433135986328 10.362321853637695 168.3436279296875 10.305404663085938 168.1442413330078 10.191572189331055 C 167.95106506347656 10.084843635559082 167.86036682128906 9.945013999938965 167.87216186523438 9.772083282470703 C 167.8839569091797 9.599151611328125 167.9763946533203 9.468472480773926 168.1494903564453 9.380047798156738 C 168.73843383789062 9.072748184204102 169.6481475830078 8.961065292358398 170.8786163330078 9.044999122619629 L 171.2178192138672 9.068138122558594 C 171.6435089111328 9.097174644470215 171.86956787109375 9.309718132019043 171.89601135253906 9.705769538879395 C 171.90809631347656 9.920422554016113 171.8247528076172 11.338037490844727 171.64599609375 13.95861530303955 C 171.4672393798828 16.579193115234375 171.42124938964844 18.08622169494629 171.50799560546875 18.479705810546875 C 171.58810424804688 18.87273406982422 171.8273162841797 19.1864070892334 172.22561645507812 19.420724868774414 C 172.62393188476562 19.655040740966797 172.81582641601562 19.878618240356445 172.8013153076172 20.09145736694336 C 172.78089904785156 20.390762329101562 171.80625915527344 20.474628448486328 169.87741088867188 20.343055725097656 L 169.5275421142578 20.329214096069336 L 168.10086059570312 20.231897354125977 C 167.5288543701172 20.19287872314453 167.2526092529297 20.03036880493164 167.27210998535156 19.744367599487305 C 167.28799438476562 19.511573791503906 167.4761199951172 19.300554275512695 167.8365020751953 19.111309051513672 C 168.1973419189453 18.9154109954834 168.45333862304688 18.688974380493164 168.60452270507812 18.43199920654297 C 168.77700805664062 18.15643310546875 168.8995361328125 17.486553192138672 168.97213745117188 16.422359466552734 L 169.00729370117188 16.053897857666016 L 169.032470703125 15.684754371643066 L 169.0798797607422 15.136710166931152 L 169.1043701171875 14.777544975280762 L 169.13885498046875 14.419059753417969 C 169.26498413085938 12.570023536682129 169.2786102294922 11.488444328308105 169.1797637939453 11.174321174621582 C 169.0813751220703 10.853549003601074 168.8358917236328 10.582880973815918 168.4433135986328 10.362321853637695 ZM 181.5360107421875 20.766494750976562 C 181.509033203125 21.071971893310547 180.7916259765625 21.162538528442383 179.38377380371094 21.03819465637207 L 178.14857482910156 20.929100036621094 L 177.6622314453125 20.86606788635254 L 176.92686462402344 20.781042098999023 C 176.0967559814453 20.707725524902344 175.69461059570312 20.52496910095215 175.72042846679688 20.232772827148438 C 175.73919677734375 20.020267486572266 175.9447784423828 19.81422233581543 176.33718872070312 19.614639282226562 C 176.73019409179688 19.408416748046875 177.00650024414062 19.121612548828125 177.16610717773438 18.754230499267578 C 177.32571411132812 18.38684844970703 177.48733520507812 17.276763916015625 177.65098571777344 15.423975944519043 C 177.8146209716797 13.571187973022461 177.85397338867188 12.443612098693848 177.76904296875 12.04124641418457 C 177.68470764160156 11.63223934173584 177.52066040039062 11.329968452453613 177.27691650390625 11.134432792663574 C 176.84568786621094 10.788484573364258 176.63623046875 10.545782089233398 176.64854431152344 10.40632438659668 C 176.66085815429688 10.266868591308594 176.7547149658203 10.151344299316406 176.9301300048828 10.059754371643066 C 177.4436492919922 9.77717113494873 178.27484130859375 9.686614036560059 179.42369079589844 9.78808307647705 L 179.64283752441406 9.807438850402832 C 180.08778381347656 9.846735954284668 180.38357543945312 10.097064018249512 180.53021240234375 10.55842113494873 C 180.67686462402344 11.01977825164795 180.80995178222656 11.255736351013184 180.9294891357422 11.2662935256958 C 181.0490264892578 11.276850700378418 181.25791931152344 11.184873580932617 181.5561981201172 10.990361213684082 C 181.8605194091797 10.803075790405273 182.22157287597656 10.617454528808594 182.63938903808594 10.433499336242676 C 183.06382751464844 10.250131607055664 183.52175903320312 10.180148124694824 184.01318359375 10.223550796508789 C 184.49795532226562 10.26636791229248 184.86203002929688 10.425682067871094 185.10536193847656 10.701494216918945 C 185.34207153320312 10.976719856262207 185.4428253173828 11.313556671142578 185.4076385498047 11.712006568908691 C 185.36521911621094 12.116509437561035 185.23228454589844 12.409282684326172 185.00881958007812 12.590324401855469 C 184.79141235351562 12.778594017028809 184.56649780273438 12.86246395111084 184.3340606689453 12.841935157775879 C 184.1016387939453 12.821406364440918 183.8013458251953 12.69784164428711 183.4331817626953 12.47123908996582 C 183.07167053222656 12.245223999023438 182.76141357421875 12.12077808380127 182.50242614746094 12.09790325164795 C 182.24342346191406 12.075029373168945 181.954833984375 12.159968376159668 181.6366424560547 12.352721214294434 C 181.31239318847656 12.538248062133789 181.0199737548828 12.893898963928223 180.75936889648438 13.419676780700684 C 180.49154663085938 13.951509475708008 180.29898071289062 14.881507873535156 180.18167114257812 16.209671020507812 C 180.06436157226562 17.53783416748047 180.08499145507812 18.403003692626953 180.24356079101562 18.805179595947266 C 180.39547729492188 19.206769943237305 180.6532745361328 19.584247589111328 181.0169219970703 19.937610626220703 C 181.38058471679688 20.29097557067871 181.55361938476562 20.567270278930664 181.5360107421875 20.766494750976562 ZM 195.14324951171875 15.061498641967773 L 195.1872100830078 14.704194068908691 C 195.25804138183594 14.128535270690918 195.11312866210938 13.58678150177002 194.75245666503906 13.078930854797363 C 194.39920043945312 12.565277099609375 193.92481994628906 12.271812438964844 193.32931518554688 12.198535919189453 L 193.1109619140625 12.171667098999023 C 192.99685668945312 12.171059608459473 192.92324829101562 12.168720245361328 192.89016723632812 12.16464900970459 C 192.34759521484375 12.097885131835938 191.79322814941406 12.345366477966309 191.22705078125 12.907092094421387 C 190.66749572753906 13.469632148742676 190.3445587158203 14.101590156555176 190.2582550048828 14.802967071533203 L 190.23992919921875 14.951844215393066 C 190.20899963378906 15.20328140258789 190.3424072265625 15.347318649291992 190.64015197753906 15.383957862854004 C 190.7493896484375 15.42426586151123 190.80731201171875 15.44482707977295 190.8139190673828 15.44564151763916 L 191.0806884765625 15.488541603088379 L 191.15016174316406 15.497090339660645 L 191.24070739746094 15.498156547546387 L 193.49966430664062 15.645139694213867 L 193.92262268066406 15.646807670593262 C 194.67694091796875 15.739625930786133 195.0838165283203 15.544522285461426 195.14324951171875 15.061498641967773 M 189.91995239257812 17.552230834960938 C 189.81167602539062 18.432260513305664 190.05462646484375 19.214454650878906 190.64883422851562 19.898813247680664 C 191.2438507080078 20.576555252075195 192.05084228515625 20.978118896484375 193.06982421875 21.103504180908203 C 193.48007202148438 21.15398406982422 193.86123657226562 21.14043426513672 194.21334838867188 21.062856674194336 C 194.56546020507812 20.985279083251953 194.95391845703125 20.885303497314453 195.3787078857422 20.7629337310791 C 195.796875 20.63974952697754 196.0555877685547 20.58426284790039 196.15484619140625 20.59647560119629 C 196.46583557128906 20.634742736816406 196.60096740722656 20.81929588317871 196.5602569580078 21.15013313293457 C 196.50489807128906 21.600074768066406 195.87310791015625 22.012670516967773 194.66490173339844 22.387922286987305 C 193.87649536132812 22.62675666809082 193.05551147460938 22.69365882873535 192.2019500732422 22.5886287689209 L 191.95382690429688 22.55809783935547 C 190.49151611328125 22.37816047668457 189.335205078125 21.78584098815918 188.48487854003906 20.781137466430664 C 188.02076721191406 20.24040985107422 187.6924591064453 19.578693389892578 187.49993896484375 18.795989990234375 C 187.30743408203125 18.01328468322754 187.2640838623047 17.191843032836914 187.36993408203125 16.3316650390625 L 187.412841796875 16.06490707397461 L 187.44581604003906 15.796928405761719 C 187.53781127929688 15.049234390258789 187.7969207763672 14.335536003112793 188.22311401367188 13.655832290649414 C 188.6625518798828 12.977757453918457 189.15228271484375 12.436851501464844 189.69229125976562 12.033113479614258 C 190.82516479492188 11.1784029006958 192.09007263183594 10.833637237548828 193.4870147705078 10.998814582824707 C 195.59776306152344 11.258541107177734 196.9024658203125 12.255342483520508 197.40110778808594 13.98922061920166 C 197.54933166503906 14.53138256072998 197.59658813476562 15.0208158493042 197.5428466796875 15.45752239227295 L 197.51475524902344 15.685800552368164 C 197.4488067626953 16.221757888793945 197.18649291992188 16.552194595336914 196.72779846191406 16.67711067199707 C 196.2616729736328 16.807828903198242 195.19749450683594 16.83137321472168 193.5352783203125 16.74774169921875 C 191.88047790527344 16.658308029174805 190.9811553955078 16.624893188476562 190.8373260498047 16.64749526977539 C 190.2917022705078 16.71469497680664 189.98590087890625 17.016273498535156 189.91995239257812 17.552230834960938 Z" transform="matrix(1, 0, 0, 1, -3.8491086959838867, 1.3585093021392822)" style="fill: url('#gradient-8'); white-space: pre; color: rgb(51, 51, 51);"/></svg>