<?xml version="1.0" encoding="utf-8"?>
<svg id="master-artboard" viewBox="0 0 209.0467987060547 37.020172119140625" version="1.1" xmlns="http://www.w3.org/2000/svg" x="0px" y="0px" style="enable-background:new 0 0 1400 980;" width="220.0467987060547px" height="60px"><defs><linearGradient id="gradient-0" gradientUnits="userSpaceOnUse" x1="104.52339935302734" y1="0" x2="104.52339935302734" y2="37.020172119140625" gradientTransform="matrix(0.9783967398551272, -0.20673408472649474, 0.2629913121973868, 1.2446428876391236, 2.4844631767097387, 34.7408022384066)">
                <stop offset="0" style="stop-color: #9b7aff"/>
                <stop offset="1" style="stop-color: #4f14ff"/>
              </linearGradient><style id="ee-google-fonts">@import url(https://fonts.googleapis.com/css?family=Coiny:400);</style><path id="text-path-0" d="M 27.140625 39.405269622802734 A 100 47 0 0 1 148.921875 39.405269622802734 A 100 47 0 0 1 27.140625 39.405269622802734" style="fill: none; stroke: red; stroke-width: 2;"/></defs><rect id="ee-background" x="0" y="0" width="209.0467987060547" height="37.020172119140625" style="fill: url('#gradient-0'); fill-opacity: 0.91; pointer-events: none;"/><path d="M 30.67192840576172 29.166305541992188 C 30.599103927612305 28.937620162963867 30.44110870361328 28.771039962768555 30.19794464111328 28.66656494140625 C 29.95477867126465 28.562089920043945 29.699796676635742 28.55233383178711 29.432998657226562 28.63729476928711 C 28.905752182006836 28.805192947387695 28.568866729736328 29.241308212280273 28.42234230041504 29.945642471313477 C 28.269466400146484 30.652000427246094 28.31439971923828 31.386320114135742 28.557146072387695 32.14860153198242 C 28.741226196289062 32.72666549682617 29.01927947998047 33.215335845947266 29.391305923461914 33.61460876464844 C 29.754955291748047 34.009552001953125 30.189899444580078 34.27684783935547 30.696138381958008 34.41648864746094 C 31.202377319335938 34.556129455566406 31.728649139404297 34.53896713256836 32.27495193481445 34.36499786376953 C 32.68150329589844 34.23553466796875 33.0468864440918 34.03172302246094 33.3711051940918 33.753562927246094 C 33.69532012939453 33.475406646728516 33.941429138183594 33.20463180541992 34.10942840576172 32.94123458862305 C 34.27742385864258 32.67784118652344 34.46001052856445 32.42729568481445 34.65718078613281 32.18959426879883 C 34.85435104370117 31.951892852783203 35.0450439453125 31.803709030151367 35.22926330566406 31.745046615600586 C 35.47065353393555 31.668176651000977 35.71062088012695 31.696706771850586 35.94917678833008 31.830636978149414 C 36.18772506713867 31.964567184448242 36.34038162231445 32.136348724365234 36.407135009765625 32.34597396850586 C 36.479957580566406 32.57466125488281 36.496055603027344 32.866886138916016 36.45542526245117 33.22265625 C 36.41276931762695 33.57207107543945 36.300968170166016 33.967994689941406 36.120018005371094 34.41042709350586 C 35.930694580078125 34.84852981567383 35.68563461303711 35.27639389038086 35.38483810424805 35.69401931762695 C 35.08404541015625 36.11164855957031 34.66860580444336 36.50980758666992 34.13852310180664 36.88850784301758 C 33.61479187011719 37.26518249511719 33.02895736694336 37.55668640136719 32.381019592285156 37.76301956176758 C 31.52345085144043 38.036109924316406 30.687936782836914 38.15874481201172 29.87447738647461 38.13092803955078 C 29.06304168701172 38.109466552734375 28.314666748046875 37.94548034667969 27.62935447692871 37.63897705078125 C 26.93768882751465 37.33449172973633 26.323083877563477 36.86553955078125 25.785539627075195 36.23211669921875 C 25.24366569519043 35.60707092285156 24.83011817932129 34.84670639038086 24.544891357421875 33.95102310180664 C 23.978487014770508 32.17236328125 24.06401824951172 30.595396041870117 24.801485061645508 29.22011947631836 C 25.534622192382812 27.85321807861328 26.765111923217773 26.894655227661133 28.492952346801758 26.344432830810547 C 29.369577407836914 26.065277099609375 30.227039337158203 25.95663833618164 31.065340042114258 26.018524169921875 C 31.907970428466797 26.072032928466797 32.63239288330078 26.292621612548828 33.23860168457031 26.680288314819336 C 33.84481430053711 27.067955017089844 34.248050689697266 27.576229095458984 34.44831848144531 28.205114364624023 C 34.678924560546875 28.92928123474121 34.64588928222656 29.660444259643555 34.34921646118164 30.39859962463379 C 34.0545654296875 31.14310646057129 33.52292251586914 31.637744903564453 32.75428771972656 31.88251304626465 C 32.315975189208984 32.022090911865234 31.88369369506836 32.02681350708008 31.45744514465332 31.896682739257812 C 31.024843215942383 31.768573760986328 30.736730575561523 31.47901153564453 30.593107223510742 31.02799415588379 C 30.526351928710938 30.81836700439453 30.534936904907227 30.493791580200195 30.61886215209961 30.054271697998047 C 30.702789306640625 29.614749908447266 30.720476150512695 29.318761825561523 30.67192840576172 29.166305541992188 ZM 43.22374725341797 31.978357315063477 C 43.44478225708008 32.88513946533203 43.45124053955078 33.573184967041016 43.24312973022461 34.042484283447266 C 43.03343963623047 34.50531005859375 42.617698669433594 34.81250762939453 41.99590301513672 34.964073181152344 C 41.36763381958008 35.11722183227539 40.865135192871094 35.05443572998047 40.4884147644043 34.775726318359375 C 40.11011505126953 34.490535736083984 39.8120231628418 33.90102767944336 39.594146728515625 33.007198333740234 L 37.8288459777832 25.934051513671875 C 37.75779724121094 25.6425838470459 37.72703170776367 25.3756103515625 37.736541748046875 25.13312530517578 C 37.74115753173828 24.898698806762695 37.77878189086914 24.687101364135742 37.849422454833984 24.498336791992188 C 37.9151611328125 24.317626953125 38.017154693603516 24.158958435058594 38.1553955078125 24.0223331451416 C 38.28558349609375 23.880809783935547 38.435829162597656 23.765274047851562 38.606136322021484 23.67572784423828 C 38.78291702270508 23.58460235595703 38.978179931640625 23.512990951538086 39.19192123413086 23.46088981628418 C 39.80723571777344 23.310901641845703 40.29710388183594 23.321868896484375 40.66151809692383 23.493791580200195 C 41.03240966796875 23.664133071899414 41.30942916870117 24.12497329711914 41.49256896972656 24.876306533813477 L 43.22374725341797 31.978357315063477 ZM 50.794559478759766 33.18974304199219 C 49.910194396972656 33.356773376464844 49.084571838378906 33.349876403808594 48.317691802978516 33.16905975341797 C 47.54957580566406 32.981689453125 46.893226623535156 32.61377716064453 46.3486442565918 32.06531524658203 C 45.802825927734375 31.510305404663086 45.449493408203125 30.80699348449707 45.28865051269531 29.95538330078125 C 45.04491424560547 28.664865493774414 45.29346466064453 27.556142807006836 46.03430938720703 26.629215240478516 C 46.776390075683594 25.708839416503906 47.83854675292969 25.118120193481445 49.22077560424805 24.857059478759766 C 50.603004455566406 24.59600067138672 51.80089569091797 24.75986671447754 52.8144416809082 25.34865951538086 C 53.8292236328125 25.94400405883789 54.4584846496582 26.886934280395508 54.70222473144531 28.177452087402344 C 54.94348907470703 29.45486831665039 54.688568115234375 30.547832489013672 53.937461853027344 31.456344604492188 C 53.18511962890625 32.358306884765625 52.13748550415039 32.93610763549805 50.794559478759766 33.18974304199219 M 50.89574432373047 28.87602424621582 C 50.78562927246094 28.292999267578125 50.612552642822266 27.789710998535156 50.37651062011719 27.36615753173828 C 50.148258209228516 26.947919845581055 49.89329147338867 26.76540184020996 49.611602783203125 26.818603515625 C 49.415077209472656 26.85572052001953 49.26640701293945 27.00252914428711 49.165592193603516 27.2590274810791 C 49.05699157714844 27.51021385192871 49.0008659362793 27.80576515197754 48.99721908569336 28.145679473876953 C 48.987022399902344 28.486831665039062 49.01718521118164 28.844106674194336 49.08770751953125 29.217506408691406 C 49.19782638549805 29.8005313873291 49.3755989074707 30.292757034301758 49.621028900146484 30.694181442260742 C 49.86114501953125 31.103395462036133 50.128597259521484 31.280162811279297 50.42338562011719 31.2244873046875 C 50.71817398071289 31.16880989074707 50.89679718017578 30.911184310913086 50.95925521850586 30.451608657836914 C 51.02826690673828 29.990795135498047 51.00709533691406 29.465600967407227 50.89574432373047 28.87602424621582 ZM 61.07125473022461 27.745372772216797 C 61.15309143066406 28.400279998779297 61.44538497924805 28.696321487426758 61.948143005371094 28.633499145507812 C 62.120140075683594 28.61200714111328 62.265262603759766 28.536766052246094 62.383514404296875 28.407773971557617 C 62.502593994140625 28.285398483276367 62.583221435546875 28.124156951904297 62.625404357910156 27.924049377441406 C 62.66675567626953 27.717327117919922 62.67172622680664 27.4882755279541 62.640316009521484 27.236896514892578 L 62.3538932800293 24.94472312927246 C 62.30512237548828 24.554426193237305 62.33201217651367 24.205062866210938 62.4345588684082 23.89663314819336 C 62.537109375 23.588205337524414 62.71076965332031 23.338075637817383 62.95553970336914 23.1462459564209 C 63.192867279052734 22.948627471923828 63.490142822265625 22.827499389648438 63.84736251831055 22.782861709594727 C 64.46257781982422 22.70598602294922 64.9591293334961 22.781667709350586 65.3370132446289 23.00990867614746 C 65.71489715576172 23.238147735595703 65.94888305664062 23.712797164916992 66.03898620605469 24.433856964111328 L 66.59571075439453 28.88920783996582 C 66.68251037597656 29.58380699157715 66.60021209716797 30.0811824798584 66.34882354736328 30.381336212158203 C 66.0908203125 30.682315826416016 65.6045913696289 30.877443313598633 64.89014434814453 30.966716766357422 C 64.57923126220703 31.00556755065918 64.31049346923828 31.005558013916016 64.08392333984375 30.96668243408203 C 63.85818099975586 30.934425354003906 63.67130661010742 30.86371612548828 63.523292541503906 30.754560470581055 C 63.381900787353516 30.644577026367188 63.26200485229492 30.491596221923828 63.163612365722656 30.295616149902344 C 62.731956481933594 30.658605575561523 62.265987396240234 30.935184478759766 61.76570510864258 31.125349044799805 C 61.25880813598633 31.316341400146484 60.68452453613281 31.451929092407227 60.0428466796875 31.5321102142334 C 59.23579025268555 31.632957458496094 58.61397171020508 31.388168334960938 58.17739486694336 30.797744750976562 C 57.74081802368164 30.207321166992188 57.43201446533203 29.187742233276367 57.25098419189453 27.739009857177734 C 57.160884857177734 27.0179500579834 57.107574462890625 26.430023193359375 57.09105682373047 25.975229263305664 C 57.06792068481445 25.52126121520996 57.07207489013672 25.12434959411621 57.103511810302734 24.784496307373047 C 57.135772705078125 24.451257705688477 57.22136688232422 24.195335388183594 57.360294342041016 24.01673126220703 C 57.49260711669922 23.83895492553711 57.660057067871094 23.700454711914062 57.86265182495117 23.60123634338379 C 58.06607437133789 23.50863265991211 58.339778900146484 23.440837860107422 58.683773040771484 23.39785385131836 C 59.32544708251953 23.317672729492188 59.80008316040039 23.379297256469727 60.10768127441406 23.582727432250977 C 60.416107177734375 23.79277229309082 60.600074768066406 24.135942459106445 60.65959167480469 24.61223793029785 L 61.07125473022461 27.745372772216797 ZM 74.70269012451172 27.610410690307617 L 74.4685287475586 24.38884735107422 C 74.25440216064453 24.082372665405273 73.99101257324219 23.939525604248047 73.6783676147461 23.960304260253906 C 73.48546600341797 23.973125457763672 73.3162612915039 24.09127426147461 73.17076110839844 24.314748764038086 C 73.03235626220703 24.54443359375 72.93406677246094 24.824901580810547 72.87590789794922 25.15615463256836 C 72.81730651855469 25.480754852294922 72.79994201660156 25.82265853881836 72.82381439208984 26.181867599487305 C 72.8587417602539 26.707374572753906 72.97638702392578 27.170591354370117 73.17675018310547 27.57151985168457 C 73.37755584716797 27.979101181030273 73.63095092773438 28.17272186279297 73.93694305419922 28.152385711669922 C 73.99681091308594 28.148406982421875 74.05623626708984 28.137775421142578 74.11522674560547 28.120492935180664 C 74.16755676269531 28.10365104675293 74.21633911132812 28.08370590209961 74.2615737915039 28.06065559387207 C 74.30725860595703 28.04425621032715 74.35249328613281 28.02120590209961 74.39729309082031 27.99150276184082 C 74.44164276123047 27.95514678955078 74.4793472290039 27.919235229492188 74.51039123535156 27.883764266967773 C 74.54144287109375 27.84829330444336 74.57205200195312 27.806171417236328 74.60221862792969 27.757396697998047 C 74.63903045654297 27.708179473876953 74.67252349853516 27.6591854095459 74.70269012451172 27.610410690307617 M 78.45775604248047 27.2606143951416 C 78.5196533203125 28.19189453125 78.4073257446289 28.86415672302246 78.12076568603516 29.277402877807617 C 77.83464813232422 29.697301864624023 77.36896514892578 29.928693771362305 76.72372436523438 29.97157859802246 C 75.99200439453125 30.020212173461914 75.47119903564453 29.824317932128906 75.16130828857422 29.383899688720703 C 74.45210266113281 29.972227096557617 73.56866455078125 30.30154037475586 72.51099395751953 30.371835708618164 C 71.61297607421875 30.431520462036133 70.840087890625 30.11207389831543 70.19233703613281 29.41349220275879 C 69.55078887939453 28.70781707763672 69.1873550415039 27.713064193725586 69.1020278930664 26.429229736328125 C 69.01493072509766 25.11878776550293 69.23820495605469 24.05497169494629 69.77185821533203 23.237783432006836 C 70.30550384521484 22.42059326171875 71.03131103515625 21.98149299621582 71.94928741455078 21.920480728149414 C 72.77413940429688 21.865659713745117 73.56678009033203 22.080232620239258 74.32720947265625 22.56420135498047 L 74.18064880371094 20.359066009521484 C 74.1337890625 19.65395736694336 74.27203369140625 19.12027931213379 74.59539031982422 18.758037567138672 C 74.91874694824219 18.395797729492188 75.36646270751953 18.19566535949707 75.93852996826172 18.157644271850586 C 76.57047271728516 18.115642547607422 77.05448913574219 18.210420608520508 77.39057922363281 18.441972732543945 C 77.72667694091797 18.673526763916016 77.92037200927734 19.175119400024414 77.9716567993164 19.94675064086914 L 78.45775604248047 27.2606143951416 ZM 94.11624908447266 22.739530563354492 C 94.72283172607422 22.749889373779297 95.15106201171875 22.85721778869629 95.40093994140625 23.061513900756836 C 95.64427185058594 23.259031295776367 95.76189422607422 23.59442138671875 95.75381469726562 24.067686080932617 C 95.7470932006836 24.460962295532227 95.59567260742188 24.73841667175293 95.29953002929688 24.900049209594727 C 95.0033950805664 25.061683654785156 94.54203796386719 25.137149810791016 93.91546630859375 25.126449584960938 L 91.11587524414062 25.078636169433594 L 91.08462524414062 26.908369064331055 L 94.83373260498047 26.992401123046875 C 95.48030853271484 27.00344467163086 95.9453125 27.104732513427734 96.22875213623047 27.296266555786133 C 96.50540924072266 27.494352340698242 96.63964080810547 27.83336067199707 96.63143920898438 28.313291549682617 C 96.62199401855469 28.866544723510742 96.45207977294922 29.2503662109375 96.1217041015625 29.46475601196289 C 95.78466033935547 29.679031372070312 95.2828598022461 29.78047752380371 94.61628723144531 29.769092559814453 L 89.01710510253906 29.6734676361084 C 88.33720397949219 29.66185760498047 87.84368133544922 29.47340202331543 87.53654479980469 29.108104705810547 C 87.22285461425781 28.736026763916016 87.07386016845703 28.090055465698242 87.08956909179688 27.170188903808594 L 87.21405029296875 19.88125228881836 C 87.23773193359375 18.494787216186523 87.90614318847656 17.812768936157227 89.21928405761719 17.835193634033203 L 94.81846618652344 17.930818557739258 C 95.48503875732422 17.942203521728516 95.98320007324219 18.054059982299805 96.31295776367188 18.266387939453125 C 96.63593292236328 18.485267639160156 96.79280853271484 18.864669799804688 96.78358459472656 19.404590606689453 C 96.77493286132812 19.911182403564453 96.62892150878906 20.262075424194336 96.34555053710938 20.457263946533203 C 96.05551147460938 20.652339935302734 95.58720397949219 20.744356155395508 94.94062805175781 20.733314514160156 L 91.1811752319336 20.669109344482422 L 91.14668273925781 22.688814163208008 L 94.11624908447266 22.739530563354492 ZM 109.7382583618164 26.198993682861328 C 109.79399871826172 25.55473518371582 109.56283569335938 25.21019172668457 109.0447769165039 25.165369033813477 C 108.8189468383789 25.145830154418945 108.63809204101562 25.264013290405273 108.50218963623047 25.51991844177246 C 108.35964965820312 25.77524757385254 108.2711410522461 26.102169036865234 108.23666381835938 26.50067901611328 C 108.18379211425781 27.111730575561523 108.13347625732422 27.615936279296875 108.08570861816406 28.01329803466797 C 108.03073120117188 28.41672706604004 107.96288299560547 28.77554702758789 107.88216400146484 29.089757919311523 C 107.7947998046875 29.40339469909668 107.7032241821289 29.649751663208008 107.60742950439453 29.828826904296875 C 107.51163482666016 30.007904052734375 107.38883209228516 30.15118408203125 107.23900604248047 30.258668899536133 C 107.08918762207031 30.36615562438965 106.92620849609375 30.43235206604004 106.75006866455078 30.45726203918457 C 106.57393646240234 30.4821720123291 106.3563461303711 30.483421325683594 106.09732055664062 30.461008071899414 C 105.6921615600586 30.425954818725586 105.37159729003906 30.341339111328125 105.1356201171875 30.207164764404297 C 104.90021514892578 30.066349029541016 104.73828125 29.888395309448242 104.64982604980469 29.673303604125977 C 104.5680160522461 29.458786010742188 104.54032897949219 29.19876480102539 104.56676483154297 28.893238067626953 L 104.8365707397461 25.77488899230957 C 104.8923110961914 25.130630493164062 104.66114807128906 24.786087036132812 104.1430892944336 24.74126434326172 C 103.93718719482422 24.723447799682617 103.75776672363281 24.825027465820312 103.60481262207031 25.04599952697754 C 103.45128631591797 25.27361297607422 103.35814666748047 25.576711654663086 103.32539367675781 25.955297470092773 L 103.11851501464844 28.346363067626953 C 103.05874633789062 29.03711700439453 102.87457275390625 29.502975463867188 102.56598663330078 29.743938446044922 C 102.25682067871094 29.99154281616211 101.74026489257812 30.084026336669922 101.01629638671875 30.021387100219727 C 100.33882904052734 29.962770462036133 99.8910140991211 29.763427734375 99.6728515625 29.423355102539062 C 99.45410919189453 29.08992576599121 99.37606048583984 28.561229705810547 99.4386978149414 27.837268829345703 L 99.8050537109375 23.60308837890625 C 99.85562133789062 23.018604278564453 100.05250549316406 22.560537338256836 100.39570617675781 22.2288875579834 C 100.7449722290039 21.90445327758789 101.18196105957031 21.764936447143555 101.7066650390625 21.810335159301758 C 102.64981079101562 21.891937255859375 103.22142791748047 22.245861053466797 103.42152404785156 22.872106552124023 C 103.88082885742188 22.590652465820312 104.32847595214844 22.405216217041016 104.76447296142578 22.315799713134766 C 105.19383239746094 22.225807189941406 105.68746185302734 22.20494842529297 106.2453842163086 22.25322151184082 C 107.09553527832031 22.326778411865234 107.67801666259766 22.748558044433594 107.99281311035156 23.5185604095459 C 108.05661010742188 23.47723960876465 108.12041473388672 23.4359188079834 108.18421173095703 23.39459800720215 C 109.12332153320312 22.82676887512207 110.23381042480469 22.598310470581055 111.51569366455078 22.70922088623047 C 112.3326416015625 22.779905319213867 112.89039611816406 23.139320373535156 113.18897247314453 23.7874698638916 C 113.49361419677734 24.44283676147461 113.5830078125 25.497802734375 113.45716094970703 26.952367782592773 C 113.40428924560547 27.563419342041016 113.35064697265625 28.067337036132812 113.2962417602539 28.46412467956543 C 113.2479019165039 28.868127822875977 113.1800537109375 29.22694969177246 113.09269714355469 29.540586471557617 C 113.00533294677734 29.854223251342773 112.91375732421875 30.10057830810547 112.81796264648438 30.27965545654297 C 112.71553039550781 30.45815658569336 112.57943725585938 30.60028648376465 112.4096908569336 30.7060489654541 C 112.24658203125 30.8123836517334 112.06700134277344 30.877145767211914 111.87093353271484 30.900331497192383 C 111.6815185546875 30.924091339111328 111.44400787353516 30.923616409301758 111.15840911865234 30.89890480041504 C 110.72004699707031 30.860977172851562 110.36959075927734 30.77377700805664 110.10704803466797 30.637304306030273 C 109.85171508789062 30.49476432800293 109.67317962646484 30.315372467041016 109.57144165039062 30.099132537841797 C 109.4763412475586 29.883464813232422 109.4420166015625 29.62286949157715 109.46845245361328 29.317344665527344 L 109.7382583618164 26.198993682861328 ZM 119.72537231445312 29.5688533782959 C 119.87158966064453 29.922874450683594 120.10272216796875 30.12500762939453 120.41874694824219 30.175256729125977 C 120.72819519042969 30.224458694458008 121.00096130371094 30.05856704711914 121.23705291748047 29.677579879760742 C 121.47418212890625 29.290008544921875 121.63410186767578 28.836156845092773 121.71680450439453 28.316022872924805 C 121.8057861328125 27.756385803222656 121.79212188720703 27.247934341430664 121.67581939697266 26.790664672851562 C 121.56056213378906 26.326810836791992 121.35478973388672 26.07132911682129 121.05851745605469 26.024221420288086 C 120.75565338134766 25.97606658935547 120.47929382324219 26.10088539123535 120.22943115234375 26.398677825927734 L 119.72537231445312 29.5688533782959 M 119.17420196533203 33.035308837890625 C 119.02764129638672 33.95706558227539 118.77152252197266 34.59138107299805 118.40585327148438 34.93826675415039 C 118.03463745117188 35.27751541137695 117.52971649169922 35.39636993408203 116.89106750488281 35.29482650756836 C 116.2590103149414 35.19432830810547 115.82310485839844 34.94275665283203 115.58335876464844 34.54011535644531 C 115.3436050415039 34.137474060058594 115.29649353027344 33.47856521606445 115.44200134277344 32.56339645385742 L 116.54723358154297 25.357553482055664 C 116.65924835205078 24.65306854248047 116.91260528564453 24.1634464263916 117.30731964111328 23.88868522644043 C 117.7020263671875 23.613922119140625 118.18248748779297 23.521556854248047 118.74871063232422 23.611587524414062 C 119.19641876220703 23.68277359008789 119.54686737060547 23.792497634887695 119.80006408691406 23.94076156616211 C 120.05879211425781 24.096656799316406 120.22887420654297 24.343088150024414 120.310302734375 24.680055618286133 C 121.19773864746094 24.193368911743164 122.08916473388672 24.02121353149414 122.98458099365234 24.163585662841797 C 123.8931655883789 24.30805206298828 124.58025360107422 24.80544662475586 125.04583740234375 25.655771255493164 C 125.50379180908203 26.511634826660156 125.62860870361328 27.594669342041016 125.42028045654297 28.904878616333008 C 125.2182388305664 30.175582885742188 124.76231384277344 31.13252830505371 124.0525131225586 31.775714874267578 C 123.34375762939453 32.41231918334961 122.53837585449219 32.65890884399414 121.6363754272461 32.5154914855957 C 120.77387237548828 32.378353118896484 120.0306167602539 32.06441116333008 119.40660095214844 31.573671340942383 L 119.17420196533203 33.035308837890625 ZM 131.1259765625 32.37024688720703 C 130.9830780029297 33.04869079589844 130.74388122558594 33.48884201049805 130.4084014892578 33.69069290161133 C 130.07154846191406 33.89906692504883 129.54759216308594 33.92836380004883 128.83653259277344 33.77858352661133 C 128.17112731933594 33.63842010498047 127.750732421875 33.3863525390625 127.5753173828125 33.02238082885742 C 127.39852905273438 32.66493225097656 127.3850326538086 32.130680084228516 127.5348129272461 31.41961669921875 L 128.41082763671875 27.260879516601562 C 128.53175354003906 26.686809539794922 128.78262329101562 26.25593376159668 129.16342163085938 25.96824836730957 C 129.5493927001953 25.688461303710938 130.0000457763672 25.602846145629883 130.51539611816406 25.711402893066406 C 131.1286163330078 25.840572357177734 131.57408142089844 26.070669174194336 131.85182189941406 26.401689529418945 C 132.13470458984375 26.740610122680664 132.2012481689453 27.265600204467773 132.0514678955078 27.97666358947754 L 131.1259765625 32.37024688720703 M 129.268310546875 22.996044158935547 C 129.17349243164062 23.446165084838867 129.2809295654297 23.809444427490234 129.59059143066406 24.08587646484375 C 129.8937530517578 24.36093521118164 130.3127899169922 24.5548038482666 130.84771728515625 24.667482376098633 C 131.44134521484375 24.792530059814453 131.91860961914062 24.79086685180664 132.27947998046875 24.662494659423828 C 132.63246154785156 24.53927230834961 132.85842895507812 24.242815017700195 132.95736694335938 23.773120880126953 C 133.1387481689453 22.912017822265625 132.61622619628906 22.352296829223633 131.3898162841797 22.093957901000977 C 130.8026885986328 21.970285415649414 130.32456970214844 21.992206573486328 129.95545959472656 22.159719467163086 C 129.57843017578125 22.332382202148438 129.34939575195312 22.611156463623047 129.268310546875 22.996044158935547 ZM 137.0277862548828 33.80192184448242 C 136.85531616210938 34.47346115112305 136.5970916748047 34.9027214050293 136.2530975341797 35.089698791503906 C 135.90745544433594 35.28313446044922 135.3762664794922 35.28781509399414 134.65951538085938 35.10374450683594 C 134.0009002685547 34.93459701538086 133.59515380859375 34.66520309448242 133.44229125976562 34.295562744140625 C 133.2813262939453 33.930721282958984 133.2912139892578 33.396385192871094 133.4719696044922 32.69255828857422 L 134.5291290283203 28.576141357421875 C 134.62696838378906 28.195171356201172 134.78018188476562 27.880041122436523 134.98873901367188 27.630752563476562 C 135.1973114013672 27.3814640045166 135.4506378173828 27.212499618530273 135.74871826171875 27.123859405517578 C 136.04034423828125 27.0335636138916 136.36050415039062 27.033187866210938 136.7091827392578 27.12273597717285 C 137.55506896972656 27.339975357055664 138.05059814453125 27.728788375854492 138.1957550048828 28.2891788482666 C 138.96749877929688 27.96426773071289 139.65362548828125 27.878923416137695 140.254150390625 28.033143997192383 C 141.42933654785156 28.3349552154541 141.87350463867188 29.044403076171875 141.58660888671875 30.16148567199707 C 141.47218322753906 30.607027053833008 141.25018310546875 30.93545913696289 140.92059326171875 31.14678382873535 C 140.59100341796875 31.358108520507812 140.21957397460938 31.41070556640625 139.8063201904297 31.30457305908203 C 139.56094360351562 31.241558074951172 139.37643432617188 31.14255142211914 139.2528076171875 31.007553100585938 C 139.1308135986328 30.866098403930664 139.01852416992188 30.727130889892578 138.91590881347656 30.59065055847168 C 138.8116455078125 30.460628509521484 138.67556762695312 30.374059677124023 138.5076904296875 30.330944061279297 C 138.26231384277344 30.267927169799805 138.05673217773438 30.304609298706055 137.89093017578125 30.44098663330078 L 137.0277862548828 33.80192184448242 ZM 146.42727661132812 33.43259811401367 C 147.1845703125 33.66938781738281 147.5980224609375 33.79930877685547 147.66763305664062 33.82236862182617 C 147.83218383789062 33.876869201660156 147.9849090576172 33.818603515625 148.12583923339844 33.6475715637207 C 148.2225799560547 33.52511215209961 148.31288146972656 33.33731460571289 148.396728515625 33.084171295166016 C 148.6251983642578 32.39435958862305 148.5337677001953 31.9813289642334 148.12240600585938 31.845077514648438 C 147.9705352783203 31.794769287109375 147.79139709472656 31.826730728149414 147.5850067138672 31.94096565246582 C 147.38494873046875 32.05729675292969 147.18081665039062 32.24952697753906 146.97262573242188 32.517662048339844 C 146.7601776123047 32.777374267578125 146.57839965820312 33.08235168457031 146.42727661132812 33.43259811401367 M 145.99417114257812 38.49307632446289 C 144.65884399414062 38.05078125 143.67086791992188 37.34430694580078 143.03024291992188 36.3736457824707 C 142.38539123535156 35.394561767578125 142.26104736328125 34.30697250366211 142.6572265625 33.110877990722656 C 143.08485412597656 31.819854736328125 143.85267639160156 30.943498611450195 144.96070861816406 30.481809616088867 C 146.06240844726562 30.01802635192871 147.2935791015625 30.011472702026367 148.6542205810547 30.46215057373047 C 149.93258666992188 30.885578155517578 150.79478454589844 31.420475006103516 151.2408447265625 32.06684112548828 C 151.68479919433594 32.71953582763672 151.77682495117188 33.438255310058594 151.5168914794922 34.22299575805664 C 151.46449279785156 34.38121032714844 151.396240234375 34.52363967895508 151.31216430664062 34.650291442871094 C 151.22596740722656 34.78327178955078 151.11973571777344 34.902584075927734 150.9934539794922 35.008235931396484 C 150.8650665283203 35.12021255493164 150.71554565429688 35.21114730834961 150.544921875 35.281044006347656 C 150.3679656982422 35.348838806152344 150.17515563964844 35.400856018066406 149.96652221679688 35.43709182739258 C 149.76629638671875 35.46909713745117 149.53756713867188 35.470584869384766 149.28030395507812 35.441558837890625 C 149.02305603027344 35.412532806396484 148.7552032470703 35.35190200805664 148.47674560546875 35.25967025756836 L 146.1636962890625 34.51459884643555 C 146.156005859375 34.8983039855957 146.26100158691406 35.23857879638672 146.4787139892578 35.53541946411133 C 146.6964111328125 35.83226013183594 147.0236053466797 36.053001403808594 147.46026611328125 36.197635650634766 C 147.9285888671875 36.352752685546875 148.42947387695312 36.451942443847656 148.96292114257812 36.495201110839844 C 149.1906280517578 36.507415771484375 149.4477996826172 36.49428176879883 149.73443603515625 36.455787658691406 C 150.02108764648438 36.41729736328125 150.21820068359375 36.415870666503906 150.32577514648438 36.45150375366211 C 150.50930786132812 36.512290954589844 150.63600158691406 36.617462158203125 150.7058563232422 36.76700973510742 C 150.771484375 36.90813446044922 150.77703857421875 37.06096649169922 150.7225341796875 37.22550964355469 C 150.65756225585938 37.421695709228516 150.49351501464844 37.63071823120117 150.23040771484375 37.852577209472656 C 149.9609832763672 38.07233810424805 149.62509155273438 38.27009201049805 149.22276306152344 38.44583511352539 C 148.81410217285156 38.619483947753906 148.32098388671875 38.719505310058594 147.74339294433594 38.74589920043945 C 147.16580200195312 38.77229309082031 146.5827178955078 38.688018798828125 145.99417114257812 38.49307632446289 Z" transform="matrix(1.0995144844055176, 0, 0, 1.0995144844055176, 9.023198127746582, -14.687840461730957)" style="fill: rgb(255, 255, 255); white-space: pre; color: rgb(51, 51, 51);"/><g transform="matrix(0.05417915550111275, -0.009414143490440096, 0.009414143490440096, 0.05417915550111275, 8.044017167855023, -19.768884815685638)"><g id="g-1" transform="matrix(1, 0, 0, 1, 0, 0)">
	<g id="g-2">
		<path class="st0" d="M103,620l16.5,30.2l33.5,6.5l-23.3,25.1l4.2,34.2L103,701.4L72.1,716l4.2-34.2L53,656.7l33.5-6.5L103,620" style="fill: rgb(255, 255, 255);"/>
	</g>
</g></g><g transform="matrix(0.053504550545945065, 0.012702145059724128, -0.012702145059724128, 0.053504550545945065, 192.45905814319556, -27.40713085544759)"><g id="g-3" transform="matrix(1, 0, 0, 1, 0, 0)">
	<g id="g-4">
		<path class="st0" d="M103,620l16.5,30.2l33.5,6.5l-23.3,25.1l4.2,34.2L103,701.4L72.1,716l4.2-34.2L53,656.7l33.5-6.5L103,620" style="fill: rgb(255, 255, 255);"/>
	</g>
</g></g><g transform="matrix(0.049941446632146835, -0.02302021533250809, 0.02302021533250809, 0.049941446632146835, 173.945043235216, -6.177616509629075)"><g id="g-5" transform="matrix(1, 0, 0, 1, 0, 0)">
	<g id="g-6">
		<path class="st0" d="M103,620l16.5,30.2l33.5,6.5l-23.3,25.1l4.2,34.2L103,701.4L72.1,716l4.2-34.2L53,656.7l33.5-6.5L103,620" style="fill: rgb(255, 255, 255);"/>
	</g>
</g></g><g transform="matrix(0.26479190587997437, 0, 0, 0.26479190587997437, -29.992280631456218, -36.97697768541633)"><g transform="matrix(1, 0, 0, 1, -21.634469985961914, 103.53639221191403)"><path class="st0" d="M477.9,219.4c-2.2-4-3.5-8.6-3.5-13.4c0-13.8,10.4-25.6,24-27.4c3.9-14.1,16.6-23.8,31.3-23.8&#10;&#9;&#9;&#9;c1.7,0,3.5,0.1,5.3,0.4c6.3-10.6,16.8-17.8,28.7-20.1c-1.7-0.3-3.4-0.5-5.1-0.5c-3.2,0-6.5,0.5-9.6,1.5c-1,0.3-2-0.1-2.6-0.9&#10;&#9;&#9;&#9;c-7.1-11-19.1-17.6-32.2-17.6c-14,0-26.9,7.7-33.6,20c-0.5,0.9-1.5,1.3-2.4,1.1c-2-0.4-4-0.6-6-0.6c-13.2,0-24.4,9-27.3,21.8&#10;&#9;&#9;&#9;c-0.2,1-1,1.7-2,1.7c-12,0.9-21.4,11-21.4,23.1c0,12.8,10.4,23.1,23.1,23.1c2.7,0,5.3-0.5,7.9-1.4c0.9-0.3,2,0,2.6,0.8&#10;&#9;&#9;&#9;C460.5,214.6,468.8,219,477.9,219.4z" style="fill: rgb(255, 255, 255); opacity: 1;" transform="matrix(1, 0, 0, 1, 0, 0)"/><path class="st0" d="M616.1,155.9c-3.2,0-6.5,0.5-9.6,1.5c-1,0.3-2-0.1-2.6-0.9c-7.1-11-19.1-17.6-32.2-17.6&#10;&#9;&#9;&#9;c-14,0-26.9,7.7-33.6,20c-0.5,0.9-1.5,1.3-2.4,1.1c-2-0.4-4-0.6-6-0.6c-13.2,0-24.4,9-27.3,21.8c-0.2,1-1,1.7-2,1.7&#10;&#9;&#9;&#9;c-12,0.9-21.4,11-21.4,23.1c0,12.8,10.4,23.1,23.1,23.1c2.7,0,5.3-0.5,7.9-1.4c0.9-0.3,2,0,2.6,0.8c5.8,7.8,14.7,12.3,24.3,12.3&#10;&#9;&#9;&#9;c9.3,0,17.9-4.2,23.7-11.5c0.4-0.5,1.1-0.8,1.8-0.8c0,0,0,0,0.1,0c0.7,0,1.4,0.4,1.8,0.9c5.3,7.4,13.8,11.8,22.8,11.8&#10;&#9;&#9;&#9;c8.7,0,16.7-3.9,22.1-10.8c0.7-0.8,1.8-1.1,2.8-0.6c1.8,0.9,3.6,1.4,5.4,1.4c6.6,0,12-5.4,12-12c0-0.3,0-0.6-0.1-1l-0.1-0.5&#10;&#9;&#9;&#9;c-0.1-0.9,0.4-1.8,1.2-2.3c10.6-5.4,17.2-16.2,17.2-28C647.6,170,633.5,155.9,616.1,155.9z" style="fill: rgb(255, 255, 255); opacity: 1;" transform="matrix(1, 0, 0, 1, 0, 0)"/></g></g><g transform="matrix(0.26479190587997437, 0, 0, 0.26479190587997437, -122.25769498651117, -33.35252118151698)"><g transform="matrix(1, 0, 0, 1, -21.634469985961914, 103.53639221191403)"><path class="st0" d="M477.9,219.4c-2.2-4-3.5-8.6-3.5-13.4c0-13.8,10.4-25.6,24-27.4c3.9-14.1,16.6-23.8,31.3-23.8&#10;&#9;&#9;&#9;c1.7,0,3.5,0.1,5.3,0.4c6.3-10.6,16.8-17.8,28.7-20.1c-1.7-0.3-3.4-0.5-5.1-0.5c-3.2,0-6.5,0.5-9.6,1.5c-1,0.3-2-0.1-2.6-0.9&#10;&#9;&#9;&#9;c-7.1-11-19.1-17.6-32.2-17.6c-14,0-26.9,7.7-33.6,20c-0.5,0.9-1.5,1.3-2.4,1.1c-2-0.4-4-0.6-6-0.6c-13.2,0-24.4,9-27.3,21.8&#10;&#9;&#9;&#9;c-0.2,1-1,1.7-2,1.7c-12,0.9-21.4,11-21.4,23.1c0,12.8,10.4,23.1,23.1,23.1c2.7,0,5.3-0.5,7.9-1.4c0.9-0.3,2,0,2.6,0.8&#10;&#9;&#9;&#9;C460.5,214.6,468.8,219,477.9,219.4z" style="fill: rgb(255, 255, 255); opacity: 1;" transform="matrix(1, 0, 0, 1, 0, 0)"/><path class="st0" d="M616.1,155.9c-3.2,0-6.5,0.5-9.6,1.5c-1,0.3-2-0.1-2.6-0.9c-7.1-11-19.1-17.6-32.2-17.6&#10;&#9;&#9;&#9;c-14,0-26.9,7.7-33.6,20c-0.5,0.9-1.5,1.3-2.4,1.1c-2-0.4-4-0.6-6-0.6c-13.2,0-24.4,9-27.3,21.8c-0.2,1-1,1.7-2,1.7&#10;&#9;&#9;&#9;c-12,0.9-21.4,11-21.4,23.1c0,12.8,10.4,23.1,23.1,23.1c2.7,0,5.3-0.5,7.9-1.4c0.9-0.3,2,0,2.6,0.8c5.8,7.8,14.7,12.3,24.3,12.3&#10;&#9;&#9;&#9;c9.3,0,17.9-4.2,23.7-11.5c0.4-0.5,1.1-0.8,1.8-0.8c0,0,0,0,0.1,0c0.7,0,1.4,0.4,1.8,0.9c5.3,7.4,13.8,11.8,22.8,11.8&#10;&#9;&#9;&#9;c8.7,0,16.7-3.9,22.1-10.8c0.7-0.8,1.8-1.1,2.8-0.6c1.8,0.9,3.6,1.4,5.4,1.4c6.6,0,12-5.4,12-12c0-0.3,0-0.6-0.1-1l-0.1-0.5&#10;&#9;&#9;&#9;c-0.1-0.9,0.4-1.8,1.2-2.3c10.6-5.4,17.2-16.2,17.2-28C647.6,170,633.5,155.9,616.1,155.9z" style="fill: rgb(255, 255, 255); opacity: 1;" transform="matrix(1, 0, 0, 1, 0, 0)"/></g></g><g transform="matrix(0.2642880082130432, 0.016317520290613178, -0.016317520290613178, 0.2642880082130432, 75.52387121683265, -36.14414361441722)"><g transform="matrix(1, 0, 0, 1, -21.634469985961914, 103.53639221191403)"><path class="st0" d="M477.9,219.4c-2.2-4-3.5-8.6-3.5-13.4c0-13.8,10.4-25.6,24-27.4c3.9-14.1,16.6-23.8,31.3-23.8&#10;&#9;&#9;&#9;c1.7,0,3.5,0.1,5.3,0.4c6.3-10.6,16.8-17.8,28.7-20.1c-1.7-0.3-3.4-0.5-5.1-0.5c-3.2,0-6.5,0.5-9.6,1.5c-1,0.3-2-0.1-2.6-0.9&#10;&#9;&#9;&#9;c-7.1-11-19.1-17.6-32.2-17.6c-14,0-26.9,7.7-33.6,20c-0.5,0.9-1.5,1.3-2.4,1.1c-2-0.4-4-0.6-6-0.6c-13.2,0-24.4,9-27.3,21.8&#10;&#9;&#9;&#9;c-0.2,1-1,1.7-2,1.7c-12,0.9-21.4,11-21.4,23.1c0,12.8,10.4,23.1,23.1,23.1c2.7,0,5.3-0.5,7.9-1.4c0.9-0.3,2,0,2.6,0.8&#10;&#9;&#9;&#9;C460.5,214.6,468.8,219,477.9,219.4z" style="fill: rgb(255, 255, 255); opacity: 1;" transform="matrix(1, 0, 0, 1, 0, 0)"/><path class="st0" d="M616.1,155.9c-3.2,0-6.5,0.5-9.6,1.5c-1,0.3-2-0.1-2.6-0.9c-7.1-11-19.1-17.6-32.2-17.6&#10;&#9;&#9;&#9;c-14,0-26.9,7.7-33.6,20c-0.5,0.9-1.5,1.3-2.4,1.1c-2-0.4-4-0.6-6-0.6c-13.2,0-24.4,9-27.3,21.8c-0.2,1-1,1.7-2,1.7&#10;&#9;&#9;&#9;c-12,0.9-21.4,11-21.4,23.1c0,12.8,10.4,23.1,23.1,23.1c2.7,0,5.3-0.5,7.9-1.4c0.9-0.3,2,0,2.6,0.8c5.8,7.8,14.7,12.3,24.3,12.3&#10;&#9;&#9;&#9;c9.3,0,17.9-4.2,23.7-11.5c0.4-0.5,1.1-0.8,1.8-0.8c0,0,0,0,0.1,0c0.7,0,1.4,0.4,1.8,0.9c5.3,7.4,13.8,11.8,22.8,11.8&#10;&#9;&#9;&#9;c8.7,0,16.7-3.9,22.1-10.8c0.7-0.8,1.8-1.1,2.8-0.6c1.8,0.9,3.6,1.4,5.4,1.4c6.6,0,12-5.4,12-12c0-0.3,0-0.6-0.1-1l-0.1-0.5&#10;&#9;&#9;&#9;c-0.1-0.9,0.4-1.8,1.2-2.3c10.6-5.4,17.2-16.2,17.2-28C647.6,170,633.5,155.9,616.1,155.9z" style="fill: rgb(255, 255, 255); opacity: 1;" transform="matrix(1, 0, 0, 1, 0, 0)"/></g></g><g transform="matrix(0.009056727882610147, 0, 0, 0.009056727882610147, 26.672347564511394, 9.451587372699109)"><g id="Layer_2" transform="matrix(1, 0, 0, 1, 0, 0)">
	<g id="Layer_1-2">
		<path class="st0" d="M652,46c27.6,0,50,22.4,50,50s-22.4,50-50,50s-50-22.4-50-50S624.4,46,652,46z" style="fill: rgb(255, 255, 255);"/>
	</g>
</g></g><g transform="matrix(0.009056728333234785, 0, 0, 0.009056728333234785, -0.4978309482823988, 2.8854610924056416)"><g id="g-7" transform="matrix(1, 0, 0, 1, 0, 0)">
	<g id="g-8">
		<path class="st0" d="M652,46c27.6,0,50,22.4,50,50s-22.4,50-50,50s-50-22.4-50-50S624.4,46,652,46z" style="fill: rgb(255, 255, 255);"/>
	</g>
</g></g><g transform="matrix(0.009056728333234785, 0, 0, 0.009056728333234785, 2.219186948791929, 14.65920531306108)"><g id="g-9" transform="matrix(1, 0, 0, 1, 0, 0)">
	<g id="g-10">
		<path class="st0" d="M652,46c27.6,0,50,22.4,50,50s-22.4,50-50,50s-50-22.4-50-50S624.4,46,652,46z" style="fill: rgb(255, 255, 255);"/>
	</g>
</g></g><g transform="matrix(0.009056728333234785, 0, 0, 0.009056728333234785, 10.596658798104457, 4.243970040942813)"><g id="g-11" transform="matrix(1, 0, 0, 1, 0, 0)">
	<g id="g-12">
		<path class="st0" d="M652,46c27.6,0,50,22.4,50,50s-22.4,50-50,50s-50-22.4-50-50S624.4,46,652,46z" style="fill: rgb(255, 255, 255);"/>
	</g>
</g></g><g transform="matrix(0.009056728333234785, 0, 0, 0.009056728333234785, 169.31578761886334, 12.395023732165804)"><g id="g-13" transform="matrix(1, 0, 0, 1, 0, 0)">
	<g id="g-14">
		<path class="st0" d="M652,46c27.6,0,50,22.4,50,50s-22.4,50-50,50s-50-22.4-50-50S624.4,46,652,46z" style="fill: rgb(255, 255, 255);"/>
	</g>
</g></g><g transform="matrix(0.009056728333234785, 0, 0, 0.009056728333234785, 195.1274576410695, 12.847860048344863)"><g id="g-15" transform="matrix(1, 0, 0, 1, 0, 0)">
	<g id="g-16">
		<path class="st0" d="M652,46c27.6,0,50,22.4,50,50s-22.4,50-50,50s-50-22.4-50-50S624.4,46,652,46z" style="fill: rgb(255, 255, 255);"/>
	</g>
</g></g><g transform="matrix(0.009056728333234785, 0, 0, 0.009056728333234785, 193.5425305344428, 1.97978846004753)"><g id="g-17" transform="matrix(1, 0, 0, 1, 0, 0)">
	<g id="g-18">
		<path class="st0" d="M652,46c27.6,0,50,22.4,50,50s-22.4,50-50,50s-50-22.4-50-50S624.4,46,652,46z" style="fill: rgb(255, 255, 255);"/>
	</g>
</g></g><g transform="matrix(0.009056728333234785, 0, 0, 0.009056728333234785, 174.296987096833, 28.923549272701322)"><g id="g-19" transform="matrix(1, 0, 0, 1, 0, 0)">
	<g id="g-20">
		<path class="st0" d="M652,46c27.6,0,50,22.4,50,50s-22.4,50-50,50s-50-22.4-50-50S624.4,46,652,46z" style="fill: rgb(255, 255, 255);"/>
	</g>
</g></g><g transform="matrix(0.009056728333234785, 0, 0, 0.009056728333234785, 157.31562524011838, 29.82922190505944)"><g id="g-21" transform="matrix(1, 0, 0, 1, 0, 0)">
	<g id="g-22">
		<path class="st0" d="M652,46c27.6,0,50,22.4,50,50s-22.4,50-50,50s-50-22.4-50-50S624.4,46,652,46z" style="fill: rgb(255, 255, 255);"/>
	</g>
</g></g><g transform="matrix(0.009056728333234785, 0, 0, 0.009056728333234785, 136.0323183797028, 28.244294798432747)"><g id="g-23" transform="matrix(1, 0, 0, 1, 0, 0)">
	<g id="g-24">
		<path class="st0" d="M652,46c27.6,0,50,22.4,50,50s-22.4,50-50,50s-50-22.4-50-50S624.4,46,652,46z" style="fill: rgb(255, 255, 255);"/>
	</g>
</g></g><g transform="matrix(0.009056728333234785, 0, 0, 0.009056728333234785, 63.57850779105394, 26.206531375626994)"><g id="g-25" transform="matrix(1, 0, 0, 1, 0, 0)">
	<g id="g-26">
		<path class="st0" d="M652,46c27.6,0,50,22.4,50,50s-22.4,50-50,50s-50-22.4-50-50S624.4,46,652,46z" style="fill: rgb(255, 255, 255);"/>
	</g>
</g></g><g transform="matrix(0.009056728333234785, 0, 0, 0.009056728333234785, 47.50281856669747, 29.60280374696991)"><g id="g-27" transform="matrix(1, 0, 0, 1, 0, 0)">
	<g id="g-28">
		<path class="st0" d="M652,46c27.6,0,50,22.4,50,50s-22.4,50-50,50s-50-22.4-50-50S624.4,46,652,46z" style="fill: rgb(255, 255, 255);"/>
	</g>
</g></g><g transform="matrix(0.009056728333234785, 0, 0, 0.009056728333234785, 50.44625462186133, 6.281733463748559)"><g id="g-29" transform="matrix(1, 0, 0, 1, 0, 0)">
	<g id="g-30">
		<path class="st0" d="M652,46c27.6,0,50,22.4,50,50s-22.4,50-50,50s-50-22.4-50-50S624.4,46,652,46z" style="fill: rgb(255, 255, 255);"/>
	</g>
</g></g></svg>